<svg width="174" height="50" viewBox="0 0 174 50" fill="none" xmlns="http://www.w3.org/2000/svg">
<path d="M167.555 50H6.44476C4.74609 50.0044 3.11471 49.3489 1.9071 48.1769C0.699492 47.0048 0.0138494 45.4114 0 43.7448L0 6.24899C0.0155022 4.58353 0.701873 2.9917 1.9093 1.82096C3.11673 0.65021 4.74717 -0.00439446 6.44476 2.22053e-05H167.555C169.253 -0.00439446 170.883 0.65021 172.091 1.82096C173.298 2.9917 173.984 4.58353 174 6.24899V43.7448C173.986 45.4114 173.301 47.0048 172.093 48.1769C170.885 49.3489 169.254 50.0044 167.555 50Z" fill="#384150"/>
<path d="M60.4132 12.8035C60.4132 13.8468 60.0939 14.6823 59.4678 15.3058C59.1026 15.6752 58.6638 15.9648 58.1793 16.1561C57.6949 16.3475 57.1756 16.4364 56.6546 16.4171C56.1341 16.4262 55.6171 16.3314 55.1342 16.1384C54.6513 15.9454 54.2124 15.6581 53.8434 15.2935C53.4667 14.9322 53.1694 14.4973 52.9703 14.0164C52.7712 13.5354 52.6747 13.0187 52.6866 12.4989C52.674 11.9799 52.7703 11.4639 52.9695 10.9839C53.1686 10.5038 53.4663 10.0701 53.8434 9.71048C54.2112 9.3439 54.6498 9.05487 55.1328 8.86073C55.6159 8.66659 56.1335 8.57134 56.6546 8.58071C57.1938 8.5814 57.7274 8.68915 58.2239 8.89762C58.6832 9.07804 59.0925 9.36444 59.4181 9.73311L58.7526 10.3916C58.2405 9.79896 57.546 9.50675 56.6546 9.50675C55.8756 9.49522 55.1239 9.79131 54.5649 10.3299C54.2743 10.6103 54.0465 10.9484 53.8964 11.3222C53.7464 11.6959 53.6775 12.0969 53.6942 12.4989C53.6799 12.9008 53.7505 13.3013 53.9016 13.6745C54.0526 14.0477 54.2807 14.3854 54.5711 14.6658C55.1318 15.2019 55.8824 15.4976 56.6608 15.489C57.0548 15.4996 57.4468 15.4311 57.8134 15.2876C58.18 15.144 58.5136 14.9283 58.7941 14.6535C59.1864 14.2405 59.414 13.7 59.4346 13.1327H56.6546V12.2375H60.3551C60.3958 12.4234 60.4152 12.6132 60.4132 12.8035Z" fill="white" stroke="white" stroke-width="0.16" stroke-miterlimit="10"/>
<path d="M66.2856 9.67182H62.8152V12.0487H65.9497V12.9521H62.8152V15.3268H66.2918V16.2467H61.8242V8.75195H66.2856V9.67182Z" fill="white" stroke="white" stroke-width="0.16" stroke-miterlimit="10"/>
<path d="M70.4305 16.2467H69.4499V9.67182H67.3125V8.75195H72.5595V9.67182H70.4305V16.2467Z" fill="white" stroke="white" stroke-width="0.16" stroke-miterlimit="10"/>
<path d="M76.3633 16.2467V8.75195H77.3459V16.2467H76.3633Z" fill="white" stroke="white" stroke-width="0.16" stroke-miterlimit="10"/>
<path d="M81.7018 16.2467H80.7254V9.67182H78.5859V8.75195H83.8434V9.67182H81.7018V16.2467Z" fill="white" stroke="white" stroke-width="0.16" stroke-miterlimit="10"/>
<path d="M93.7827 15.2809C93.0344 16.0064 92.0299 16.4125 90.984 16.4125C89.938 16.4125 88.9335 16.0064 88.1853 15.2809C87.8178 14.9168 87.5285 14.4825 87.3351 14.0043C87.1416 13.5261 87.0478 13.0139 87.0596 12.4986C87.0478 11.9834 87.1416 11.4712 87.3351 10.993C87.5285 10.5147 87.8178 10.0804 88.1853 9.7164C88.9315 8.98698 89.9367 8.57812 90.984 8.57812C92.0312 8.57812 93.0365 8.98698 93.7827 9.7164C94.1511 10.0788 94.4414 10.5117 94.636 10.989C94.8306 11.4662 94.9254 11.9777 94.9146 12.4925C94.9263 13.0092 94.8321 13.5228 94.6375 14.0022C94.4429 14.4816 94.152 14.9166 93.7827 15.2809ZM88.9046 14.6532C89.4584 15.1917 90.2026 15.4932 90.9777 15.4932C91.7529 15.4932 92.4971 15.1917 93.0508 14.6532C93.3347 14.3713 93.5575 14.0347 93.7054 13.6642C93.8534 13.2937 93.9234 12.897 93.9112 12.4986C93.9245 12.1008 93.8558 11.7045 93.7092 11.334C93.5627 10.9635 93.3415 10.6267 93.0591 10.344C92.5054 9.80561 91.7612 9.50404 90.986 9.50404C90.2109 9.50404 89.4666 9.80561 88.9129 10.344C88.6306 10.6267 88.4093 10.9635 88.2628 11.334C88.1163 11.7045 88.0476 12.1008 88.0609 12.4986C88.0465 12.8959 88.1139 13.2918 88.259 13.6623C88.4041 14.0327 88.6238 14.3699 88.9046 14.6532Z" fill="white" stroke="white" stroke-width="0.16" stroke-miterlimit="10"/>
<path d="M96.2891 16.2467V8.75195H97.4832L101.196 14.5798H101.24L101.196 13.1393V8.75195H102.179V16.2467H101.153L97.2655 10.1307H97.2282L97.2717 11.5712V16.2467H96.2891Z" fill="white" stroke="white" stroke-width="0.16" stroke-miterlimit="10"/>
<path d="M86.8101 27.1914C83.8186 27.1914 81.3723 29.4263 81.3723 32.509C81.3723 35.5917 83.8165 37.8244 86.8101 37.8244C89.8036 37.8244 92.2541 35.567 92.2541 32.5151C92.2541 29.4633 89.8078 27.1914 86.8101 27.1914ZM86.8101 35.7295C85.1682 35.7295 83.7564 34.4002 83.7564 32.5069C83.7564 30.6137 85.1682 29.2843 86.8101 29.2843C88.452 29.2843 89.87 30.591 89.87 32.5151C89.87 34.4393 88.452 35.7295 86.8101 35.7295ZM74.9477 27.1914C71.9375 27.1914 69.5099 29.4283 69.5099 32.5151C69.5099 35.6019 71.9376 37.8244 74.9456 37.8244C77.9537 37.8244 80.3834 35.5608 80.3834 32.509C80.3834 29.4572 77.9496 27.1914 74.9456 27.1914H74.9477ZM74.9477 35.7295C73.3037 35.7295 71.8857 34.4002 71.8857 32.5069C71.8857 30.6137 73.3037 29.2843 74.9477 29.2843C76.5917 29.2843 78.0014 30.591 78.0014 32.5069C78.0014 34.4228 76.5875 35.7295 74.9456 35.7295H74.9477ZM60.8298 28.811V31.0746H66.3298C66.1681 32.3361 65.7389 33.2663 65.0859 33.9124C64.2836 34.6944 63.0335 35.5587 60.836 35.5587C59.2524 35.5296 57.7435 34.8847 56.634 33.7627C55.5244 32.6407 54.9028 31.1313 54.9028 29.559C54.9028 27.9868 55.5244 26.4773 56.634 25.3553C57.7435 24.2333 59.2524 23.5884 60.836 23.5593C62.3777 23.5349 63.8671 24.1137 64.9823 25.1706L66.6055 23.5778C65.843 22.8395 64.9408 22.2583 63.951 21.8677C62.9611 21.477 61.9032 21.2847 60.8381 21.3018C56.1964 21.3018 52.2969 25.006 52.2969 29.5601C52.2969 34.1141 56.1819 37.8244 60.8298 37.8244C63.3383 37.8244 65.2227 37.0178 66.7029 35.5052C68.2205 34.0153 68.6931 31.9225 68.6931 30.2309C68.6968 29.7575 68.6552 29.2848 68.5687 28.8192L60.8298 28.811ZM118.556 30.5622C118.108 29.3728 116.727 27.1812 113.914 27.1812C111.101 27.1812 108.806 29.346 108.806 32.5151C108.794 33.2181 108.926 33.9161 109.192 34.5676C109.458 35.219 109.854 35.8105 110.356 36.3067C110.858 36.8028 111.455 37.1935 112.112 37.4553C112.77 37.7172 113.473 37.8448 114.181 37.8306C115.072 37.8388 115.95 37.6279 116.739 37.2168C117.527 36.8056 118.2 36.207 118.699 35.4744L116.852 34.2664C116.23 35.1513 115.4 35.7357 114.181 35.7357C112.962 35.7357 112.108 35.1945 111.557 34.1244L118.813 31.1817L118.556 30.5622ZM111.165 32.332C111.142 31.9433 111.198 31.554 111.329 31.1869C111.459 30.8197 111.662 30.482 111.925 30.1936C112.189 29.9051 112.507 29.6715 112.863 29.5066C113.218 29.3417 113.603 29.2486 113.995 29.2328C114.94 29.2328 115.742 29.6979 116.012 30.3606L111.165 32.332ZM105.273 37.5014H107.657V21.876H105.273V37.5014ZM101.376 28.3747H101.297C100.933 27.989 100.491 27.6839 100 27.4797C99.5095 27.2754 98.9807 27.1765 98.4485 27.1894C95.7348 27.1894 93.2533 29.5271 93.2533 32.5234C93.2533 35.5196 95.741 37.8224 98.4485 37.8224C98.9829 37.8361 99.5139 37.7352 100.005 37.5268C100.497 37.3183 100.938 37.0071 101.297 36.6144H101.376V37.3779C101.376 39.4111 100.269 40.5038 98.4734 40.5038C97.0222 40.5038 96.1142 39.4749 95.7431 38.6044L93.67 39.4522C94.0664 40.3901 94.7347 41.19 95.5899 41.7502C96.4451 42.3104 97.4488 42.6057 98.4734 42.5987C101.266 42.5987 103.623 40.9853 103.623 37.063V27.5145H101.376V28.3747ZM98.6517 35.7295C97.0098 35.7295 95.6353 34.3816 95.6353 32.5254C95.6353 30.6692 97.0098 29.2843 98.6517 29.2843C100.294 29.2843 101.554 30.6507 101.554 32.5254C101.554 34.4002 100.265 35.7295 98.6475 35.7295H98.6517ZM129.709 21.876H124.01V37.5014H126.386V31.5809H129.703C132.342 31.5809 134.929 29.7082 134.929 26.7284C134.929 23.7486 132.342 21.876 129.709 21.876ZM129.771 29.4078H126.388V24.0573H129.777C130.492 24.0573 131.178 24.3392 131.683 24.8409C132.189 25.3426 132.472 26.023 132.472 26.7325C132.472 27.4421 132.189 28.1225 131.683 28.6242C131.178 29.1259 130.492 29.4078 129.777 29.4078H129.771ZM144.459 27.1647C142.743 27.1647 140.958 27.9076 140.224 29.5559L142.332 30.4223C142.786 29.5559 143.62 29.274 144.503 29.274C145.736 29.274 146.99 30.0004 147.005 31.2825V31.4471C146.238 31.0454 145.384 30.8376 144.517 30.8421C142.237 30.8421 139.932 32.0768 139.932 34.3569C139.932 36.4498 141.797 37.7997 143.883 37.7997C145.481 37.7997 146.371 37.0918 146.918 36.2687H146.999V37.4767H149.294V31.4862C149.3 28.7122 147.192 27.1647 144.459 27.1647ZM144.173 35.7275C143.396 35.7275 142.307 35.3488 142.307 34.4043C142.307 33.1942 143.657 32.7312 144.826 32.7312C145.584 32.7131 146.334 32.8941 146.999 33.256C146.906 33.9359 146.568 34.5596 146.049 35.0128C145.53 35.466 144.864 35.7182 144.173 35.7234V35.7275ZM157.661 27.5063L154.93 34.2787H154.85L152.026 27.5063H149.472L153.716 36.9725L151.294 42.2406H153.782L160.321 27.5084L157.661 27.5063ZM136.241 37.5014H138.623V21.876H136.241V37.5014Z" fill="white"/>
<path d="M13.294 9.42258C12.9187 9.8074 12.7031 10.4062 12.7031 11.18V38.8233C12.7031 39.5991 12.9104 40.1959 13.294 40.5807L13.3873 40.6651L29.1761 25.1817V24.8175L13.3873 9.33203L13.294 9.42258Z" fill="url(#paint0_linear_1_1724)"/>
<path d="M34.4351 30.3471L29.1777 25.1839V24.8176L34.4414 19.6523L34.5595 19.7203L40.7934 23.2001C42.5721 24.1879 42.5721 25.8136 40.7934 26.8055L34.5595 30.2792L34.4351 30.3471Z" fill="url(#paint1_linear_1_1724)"/>
<path d="M34.5568 30.2805L29.1667 25L13.2949 40.5842C13.8858 41.2016 14.8498 41.2674 15.9444 40.6583L34.5568 30.2825" fill="url(#paint2_linear_1_1724)"/>
<path d="M34.5568 19.7198L15.9444 9.34202C14.8477 8.73907 13.8858 8.81315 13.2949 9.42228L29.177 24.9983L34.5568 19.7198Z" fill="url(#paint3_linear_1_1724)"/>
<defs>
<linearGradient id="paint0_linear_1_1724" x1="27.7" y1="39.1184" x2="6.74155" y2="17.7913" gradientUnits="userSpaceOnUse">
<stop stop-color="#00A0FF"/>
<stop offset="0.01" stop-color="#00A1FF"/>
<stop offset="0.26" stop-color="#00BEFF"/>
<stop offset="0.51" stop-color="#00D2FF"/>
<stop offset="0.76" stop-color="#00DFFF"/>
<stop offset="1" stop-color="#00E3FF"/>
</linearGradient>
<linearGradient id="paint1_linear_1_1724" x1="42.9992" y1="25.0164" x2="12.2446" y2="25.0164" gradientUnits="userSpaceOnUse">
<stop stop-color="#FFE000"/>
<stop offset="0.41" stop-color="#FFBD00"/>
<stop offset="0.78" stop-color="#FFA500"/>
<stop offset="1" stop-color="#FF9C00"/>
</linearGradient>
<linearGradient id="paint2_linear_1_1724" x1="20.9447" y1="32.5719" x2="-7.47727" y2="3.65019" gradientUnits="userSpaceOnUse">
<stop stop-color="#FF3A44"/>
<stop offset="1" stop-color="#C31162"/>
</linearGradient>
<linearGradient id="paint3_linear_1_1724" x1="-1.33297" y1="39.3544" x2="11.3595" y2="26.4408" gradientUnits="userSpaceOnUse">
<stop stop-color="#32A071"/>
<stop offset="0.07" stop-color="#2DA771"/>
<stop offset="0.48" stop-color="#15CF74"/>
<stop offset="0.8" stop-color="#06E775"/>
<stop offset="1" stop-color="#00F076"/>
</linearGradient>
</defs>
</svg>
