<svg width="174" height="50" viewBox="0 0 174 50" fill="none" xmlns="http://www.w3.org/2000/svg">
<path d="M172 44.9881C172 45.6468 171.872 46.299 171.623 46.9075C171.374 47.516 171.009 48.0688 170.549 48.5343C170.089 48.9998 169.542 49.3688 168.941 49.6203C168.34 49.8718 167.696 50.0008 167.046 50H4.96021C4.30965 50.0008 3.6653 49.8719 3.06395 49.6204C2.4626 49.369 1.91602 49.0001 1.45542 48.5347C0.994822 48.0693 0.629226 47.5165 0.379504 46.908C0.129783 46.2995 0.000827153 45.6471 0 44.9881V5.0183C0.00167019 3.68678 0.524999 2.41037 1.45504 1.46944C2.38507 0.528507 3.64577 -1.0749e-06 4.96021 0L167.046 0C168.36 0 169.62 0.528712 170.549 1.46983C171.478 2.41094 172 3.68737 172 5.0183V44.9881Z" fill="white"/>
<path d="M174 44.9881C174 45.6468 173.87 46.299 173.618 46.9075C173.366 47.516 172.997 48.0688 172.532 48.5343C172.066 48.9998 171.514 49.3688 170.906 49.6203C170.298 49.8718 169.646 50.0008 168.988 50H5.01788C4.35976 50.0008 3.70792 49.8719 3.09958 49.6204C2.49123 49.369 1.9383 49.0001 1.47234 48.5347C1.00639 48.0693 0.636542 47.5165 0.383917 46.908C0.131292 46.2995 0.000836771 45.6471 0 44.9881V5.0183C0.00168961 3.68678 0.531104 2.41037 1.47196 1.46944C2.41281 0.528507 3.68816 -1.0749e-06 5.01788 0L168.988 0C170.318 0 171.592 0.528712 172.532 1.46983C173.472 2.41094 174 3.68737 174 5.0183V44.9881Z" fill="#384150"/>
<path d="M38.212 24.7259C38.1737 20.5078 41.6614 18.4562 41.825 18.3604C39.8506 15.4767 36.7901 15.083 35.7147 15.0532C33.1388 14.7808 30.6437 16.6004 29.3303 16.6004C28.0168 16.6004 25.9786 15.0872 23.8044 15.1298C21.0075 15.1724 18.3912 16.7941 16.9566 19.3117C13.9961 24.4449 16.2043 31.9894 19.0416 36.1394C20.4613 38.174 22.119 40.4405 24.289 40.3618C26.4143 40.2745 27.2049 39.0082 29.7681 39.0082C32.3312 39.0082 33.0517 40.3618 35.2663 40.3107C37.5446 40.2745 38.9813 38.2698 40.35 36.2182C41.3703 34.7705 42.1551 33.1701 42.6751 31.4765C42.6284 31.4531 38.2566 29.7804 38.212 24.7259Z" fill="white"/>
<path d="M34.0287 12.323C35.17 10.8928 35.9521 8.94763 35.729 6.97266C34.0755 7.04502 32.0076 8.11763 30.8174 9.5265C29.7547 10.7587 28.8238 12.7805 29.0661 14.681C30.93 14.8087 32.8364 13.7318 34.0287 12.323Z" fill="white"/>
<path d="M68.9711 40.0638H65.9957L64.3698 34.9561H58.7249L57.1756 40.0638H54.2852L59.8854 22.6487H63.3433L68.9711 40.0638ZM63.8873 32.8023L62.4166 28.2544C62.2608 27.7904 61.9682 26.6965 61.5389 24.9727H61.4857C61.3129 25.7133 61.0373 26.8072 60.659 28.2544L59.2138 32.8023H63.8873Z" fill="white"/>
<path d="M83.3435 33.6253C83.3435 35.7606 82.764 37.4482 81.605 38.6883C81.1149 39.2232 80.5166 39.6473 79.85 39.9324C79.1834 40.2176 78.4637 40.3572 77.739 40.3419C76.0784 40.3419 74.8847 39.7481 74.1578 38.5606V45.158H71.3737V31.6333C71.3737 30.2925 71.339 28.917 71.2695 27.5067H73.72L73.8752 29.4966H73.9283C74.8578 27.9926 76.2683 27.2407 78.1598 27.2407C78.8698 27.231 79.5726 27.3842 80.2143 27.6885C80.8561 27.9929 81.4197 28.4403 81.8621 28.9964C82.8497 30.174 83.3435 31.717 83.3435 33.6253ZM80.5041 33.7274C80.5041 32.5058 80.2285 31.4978 79.6773 30.7033C79.4081 30.3109 79.0453 29.9921 78.6218 29.7758C78.1983 29.5595 77.7276 29.4525 77.2523 29.4646C76.5676 29.4645 75.905 29.7073 75.382 30.1499C74.8231 30.6064 74.4363 31.2399 74.2854 31.9461C74.2087 32.2238 74.1652 32.5095 74.1557 32.7974V34.9022C74.1333 35.7519 74.4333 36.5785 74.9952 37.2156C75.2668 37.524 75.6031 37.7685 75.9801 37.9315C76.3571 38.0945 76.7654 38.172 77.1758 38.1584C77.6532 38.1771 78.1276 38.0758 78.5557 37.8635C78.9838 37.6512 79.3519 37.3347 79.6263 36.9431C80.2129 36.1288 80.5062 35.0583 80.5062 33.7317L80.5041 33.7274Z" fill="white"/>
<path d="M97.7654 33.6251C97.7654 35.7604 97.1859 37.4481 96.0269 38.6881C95.5366 39.2232 94.938 39.6476 94.2709 39.9327C93.6039 40.2178 92.8839 40.3573 92.1588 40.3417C90.4982 40.3417 89.3045 39.7479 88.5776 38.5604V45.1578H85.7955V31.6331C85.7955 30.2923 85.7608 28.9168 85.6914 27.5065H88.1419L88.2971 29.4964H88.3502C89.2782 27.9925 90.6887 27.2405 92.5817 27.2405C93.2911 27.233 93.9928 27.3879 94.6333 27.6933C95.2738 27.9987 95.8362 28.4465 96.2776 29.0026C97.2695 30.176 97.7654 31.7168 97.7654 33.6251ZM94.9259 33.7273C94.9259 32.5057 94.6504 31.4976 94.0992 30.7031C93.8304 30.3108 93.468 29.9919 93.0449 29.7756C92.6217 29.5593 92.1513 29.4523 91.6763 29.4645C90.9911 29.465 90.328 29.7077 89.8039 30.1497C89.2457 30.6064 88.8596 31.24 88.7094 31.9459C88.6335 32.2237 88.59 32.5094 88.5797 32.7972V34.902C88.5578 35.7512 88.8569 36.5775 89.4171 37.2154C89.6902 37.5225 90.0276 37.7655 90.4053 37.927C90.7829 38.0885 91.1915 38.1645 91.6019 38.1497C92.0793 38.1688 92.5539 38.0676 92.9821 37.8553C93.4103 37.643 93.7783 37.3263 94.0524 36.9345C94.6362 36.1257 94.9281 35.0581 94.9281 33.7315L94.9259 33.7273Z" fill="white"/>
<path d="M113.893 35.1774C113.893 36.66 113.378 37.866 112.348 38.7953C111.215 39.8112 109.636 40.3191 107.611 40.3191C105.739 40.3191 104.238 39.9573 103.107 39.2338L103.745 36.9076C104.963 37.6307 106.355 38.0061 107.77 37.993C108.822 37.993 109.639 37.7561 110.221 37.2822C110.506 37.0568 110.734 36.7676 110.887 36.4379C111.039 36.1082 111.113 35.7471 111.101 35.3838C111.107 35.0528 111.047 34.7239 110.922 34.4173C110.797 34.1106 110.612 33.8326 110.376 33.6004C109.894 33.1194 109.101 32.6704 107.977 32.2575C104.932 31.1225 103.409 29.4596 103.407 27.269C103.391 26.599 103.529 25.9343 103.808 25.3254C104.088 24.7166 104.502 24.1796 105.02 23.7553C106.094 22.8416 107.518 22.3848 109.292 22.3848C110.875 22.3848 112.191 22.6607 113.241 23.2126L112.542 25.4877C111.514 24.944 110.367 24.6688 109.205 24.6875C108.223 24.6875 107.452 24.9301 106.899 25.4111C106.676 25.6084 106.498 25.8516 106.377 26.1241C106.256 26.3967 106.196 26.6921 106.2 26.9902C106.194 27.3165 106.263 27.6398 106.402 27.935C106.541 28.2302 106.746 28.4895 107.001 28.6928C107.464 29.1056 108.307 29.5533 109.528 30.0357C111.026 30.6401 112.127 31.3459 112.831 32.1532C113.551 32.9923 113.93 34.0716 113.893 35.1774Z" fill="white"/>
<path d="M123.131 29.5997H120.06V35.697C120.06 37.2478 120.602 38.0225 121.686 38.021C122.102 38.0307 122.518 37.9871 122.923 37.8912L122.999 40.0194C122.3 40.248 121.566 40.3524 120.831 40.328C119.73 40.328 118.87 39.9918 118.251 39.3192C117.632 38.6467 117.321 37.5152 117.318 35.9248V29.5955H115.488V27.5013H117.318V25.2029L120.056 24.375V27.5013H123.127L123.131 29.5997Z" fill="white"/>
<path d="M136.96 33.6821C136.96 35.6117 136.41 37.1965 135.309 38.4365C134.157 39.7135 132.626 40.3519 130.716 40.3519C128.874 40.3519 127.407 39.7411 126.316 38.5195C125.225 37.2979 124.679 35.7564 124.678 33.8949C124.678 31.9484 125.244 30.355 126.378 29.115C127.511 27.875 129.025 27.2507 130.92 27.2422C132.762 27.2422 134.241 27.8537 135.357 29.0767C136.427 30.2657 136.961 31.8008 136.96 33.6821ZM134.072 33.746C134.101 32.7085 133.843 31.6831 133.326 30.7835C132.742 29.7904 131.907 29.2938 130.822 29.2938C130.3 29.2792 129.785 29.4109 129.335 29.6742C128.884 29.9375 128.516 30.3217 128.272 30.7835C127.748 31.6999 127.487 32.7437 127.519 33.7992C127.489 34.8377 127.748 35.8641 128.267 36.7638C128.869 37.7619 129.71 38.2535 130.799 38.2535C131.887 38.2535 132.699 37.7449 133.302 36.7318C133.83 35.8273 134.097 34.7935 134.072 33.746Z" fill="white"/>
<path d="M146.01 29.9596C145.72 29.9074 145.426 29.8818 145.132 29.883C144.69 29.8623 144.251 29.9534 143.854 30.148C143.456 30.3425 143.115 30.6342 142.86 30.996C142.381 31.7312 142.145 32.5985 142.184 33.4754V40.0728H139.389V31.46C139.389 30.0142 139.362 28.6962 139.309 27.5058H141.736L141.838 29.9085H141.914C142.178 29.1252 142.661 28.4345 143.306 27.9187C143.888 27.4828 144.595 27.2469 145.321 27.2462C145.554 27.2449 145.788 27.262 146.018 27.2972V29.9596H146.01Z" fill="white"/>
<path d="M158.481 33.1995C158.488 33.624 158.454 34.048 158.379 34.4658H150.02C150.052 35.7059 150.456 36.6543 151.234 37.3112C151.942 37.8944 152.853 38.1866 153.967 38.1881C155.121 38.2033 156.268 38.0019 157.349 37.5943L157.784 39.5288C156.451 40.0749 155.02 40.3393 153.58 40.3056C151.636 40.3056 150.109 39.7331 148.998 38.5882C147.887 37.4432 147.333 35.9059 147.334 33.9763C147.334 32.0837 147.85 30.5081 148.883 29.2496C149.966 27.9074 151.427 27.2363 153.268 27.2363C155.076 27.2363 156.444 27.9074 157.372 29.2496C158.11 30.3066 158.48 31.6233 158.481 33.1995ZM155.825 32.476C155.862 31.7227 155.673 30.9756 155.283 30.3307C154.8 29.5539 154.059 29.1666 153.064 29.1666C152.63 29.1589 152.2 29.2586 151.813 29.4569C151.427 29.6551 151.095 29.9457 150.847 30.3031C150.372 30.9338 150.086 31.6866 150.023 32.4738L155.825 32.476Z" fill="white"/>
<path d="M62.5438 16.4151H61.0837L60.2845 13.9017H57.5067L56.7459 16.4151H55.3262L58.0785 7.85547H59.7787L62.5438 16.4151ZM60.0444 12.8461L59.3218 10.6115C59.2453 10.3816 59.1092 9.84959 58.8967 8.99831H58.8712C58.7819 9.36649 58.6587 9.90067 58.4653 10.6115L57.7554 12.8461H60.0444Z" fill="white"/>
<path d="M69.4257 10.2422L67.0879 16.414H65.7553L63.4961 10.2422H64.9668L66.0295 13.5068C66.208 14.0517 66.3589 14.5709 66.4715 15.0689H66.5098C66.6118 14.6263 66.7627 14.1049 66.9519 13.5068L67.9911 10.2422H69.4257Z" fill="white"/>
<path d="M74.3865 16.414L74.2844 15.7032H74.2462C74.0398 15.983 73.7673 16.2072 73.4531 16.3558C73.139 16.5043 72.793 16.5726 72.446 16.5545C71.343 16.5545 70.5566 15.7798 70.5566 14.7391C70.5566 13.2153 71.8743 12.4279 74.1591 12.4279V12.3151C74.1591 11.5021 73.734 11.0956 72.8839 11.0956C72.3134 11.0849 71.7527 11.2441 71.2729 11.5532L70.986 10.6402C71.6298 10.2647 72.3667 10.0795 73.1113 10.106C74.7223 10.106 75.5341 10.9573 75.5341 12.6599V14.9413C75.5243 15.4338 75.5542 15.9263 75.6234 16.414H74.3865ZM74.1952 13.3409C72.6735 13.3409 71.9126 13.7091 71.9126 14.5859C71.9126 15.2243 72.3058 15.55 72.852 15.55C73.1959 15.5592 73.5297 15.4328 73.7813 15.1979C74.033 14.963 74.1824 14.6385 74.1973 14.2943L74.1952 13.3409Z" fill="white"/>
<path d="M78.588 9.22551C78.4287 9.21678 78.2753 9.16158 78.1469 9.06668C78.0185 8.97179 77.9205 8.84136 77.8652 8.69145C77.8099 8.54154 77.7995 8.37869 77.8354 8.22297C77.8714 8.06724 77.952 7.92544 78.0674 7.81501C78.1828 7.70459 78.3279 7.63037 78.4849 7.6015C78.6418 7.57262 78.8038 7.59035 78.9509 7.6525C79.0979 7.71465 79.2236 7.8185 79.3125 7.95128C79.4013 8.08405 79.4494 8.23995 79.4509 8.39976C79.4539 8.5123 79.4333 8.62421 79.3904 8.7283C79.3476 8.83238 79.2835 8.92633 79.2022 9.00411C79.1209 9.08189 79.0243 9.14177 78.9185 9.1799C78.8127 9.21803 78.7002 9.23357 78.588 9.22551ZM79.3 16.4146H77.9313V10.2428H79.3V16.4146Z" fill="white"/>
<path d="M83.0992 16.4146H81.7305V7.41016H83.0992V16.4146Z" fill="white"/>
<path d="M88.9236 16.414L88.8216 15.7032H88.7833C88.5769 15.983 88.3044 16.2072 87.9903 16.3557C87.6761 16.5043 87.3301 16.5726 86.9832 16.5545C85.8801 16.5545 85.0938 15.7798 85.0938 14.7391C85.0938 13.2153 86.4115 12.4279 88.6962 12.4279V12.3151C88.6962 11.5021 88.2711 11.0956 87.421 11.0956C86.8506 11.0848 86.2898 11.2441 85.81 11.5532L85.5231 10.6402C86.167 10.2648 86.9038 10.0796 87.6484 10.106C89.2594 10.106 90.0713 10.9573 90.0713 12.6598V14.9391C90.0622 15.4316 90.0913 15.924 90.1584 16.4119L88.9236 16.414ZM88.7323 13.3409C87.2106 13.3409 86.4497 13.709 86.4497 14.5859C86.4497 15.2243 86.8429 15.5499 87.3891 15.5499C87.733 15.5592 88.0668 15.4328 88.3184 15.1979C88.5701 14.963 88.7195 14.6385 88.7344 14.2943L88.7323 13.3409Z" fill="white"/>
<path d="M95.6137 16.555C95.2208 16.574 94.8305 16.4817 94.4876 16.2885C94.1448 16.0954 93.8633 15.8094 93.6754 15.4633H93.6478L93.5691 16.4167H92.4023C92.4406 15.923 92.4534 15.3526 92.4534 14.7525V7.41016H93.8242V11.1452H93.8497C94.2556 10.4599 94.9123 10.1172 95.8156 10.1172C97.3033 10.1172 98.3405 11.3942 98.3405 13.2414C98.3405 15.1568 97.1864 16.555 95.6137 16.555ZM95.3353 11.1941C94.9183 11.2113 94.5251 11.3935 94.2421 11.7007C93.9592 12.008 93.8096 12.4152 93.8263 12.8328V13.9118C93.8212 14.1117 93.8558 14.3105 93.928 14.4969C94.0003 14.6833 94.1087 14.8535 94.2471 14.9976C94.3855 15.1417 94.551 15.2569 94.7342 15.3364C94.9173 15.416 95.1144 15.4584 95.314 15.4611C96.3406 15.4611 96.9505 14.6226 96.9505 13.2904C96.9463 12.0454 96.3108 11.1941 95.3353 11.1941Z" fill="white"/>
<path d="M101.734 16.4146H100.365V7.41016H101.734V16.4146Z" fill="white"/>
<path d="M109.19 13.6578H105.08C105.107 14.8262 105.879 15.4859 107.02 15.4859C107.587 15.4917 108.151 15.3928 108.682 15.1943L108.895 16.1478C108.239 16.4158 107.536 16.5455 106.829 16.5287C104.899 16.5287 103.76 15.3093 103.76 13.4173C103.76 11.5253 104.929 10.1016 106.676 10.1016C108.248 10.1016 109.239 11.2699 109.239 13.0364C109.248 13.2447 109.231 13.4534 109.19 13.6578ZM107.934 12.6809C107.934 11.7275 107.451 11.055 106.576 11.055C105.789 11.055 105.169 11.7403 105.088 12.6809H107.934Z" fill="white"/>
<path d="M117.491 16.5551C115.691 16.5551 114.516 15.2079 114.516 13.3798C114.516 11.4644 115.708 10.1151 117.587 10.1151C119.359 10.1151 120.562 11.392 120.562 13.2776C120.562 15.2079 119.332 16.5551 117.491 16.5551ZM117.544 11.1196C116.556 11.1196 115.92 12.0454 115.92 13.3415C115.92 14.6375 116.567 15.5356 117.529 15.5356C118.492 15.5356 119.138 14.546 119.138 13.3117C119.138 12.0773 118.507 11.1175 117.544 11.1175V11.1196Z" fill="white"/>
<path d="M127.924 16.4152H126.555V12.8718C126.555 11.78 126.13 11.233 125.312 11.233C124.494 11.233 123.941 11.9311 123.941 12.7441V16.4152H122.572V12.0077C122.572 11.4629 122.558 10.8776 122.521 10.2434H123.727L123.79 11.1969H123.829C124.029 10.8597 124.316 10.5822 124.659 10.3925C125.002 10.2029 125.39 10.1081 125.782 10.1179C127.074 10.1179 127.924 11.1075 127.924 12.7207V16.4152Z" fill="white"/>
<path d="M136.887 11.2783H135.383V14.2577C135.383 15.0211 135.648 15.402 136.18 15.4006C136.385 15.4025 136.589 15.3811 136.79 15.3367L136.828 16.3774C136.485 16.491 136.126 16.5429 135.765 16.5307C134.686 16.5307 134.042 15.9348 134.042 14.3705V11.2783H133.143V10.2418H134.042V9.11174L135.383 8.70312V10.2397H136.89L136.887 11.2783Z" fill="white"/>
<path d="M144.141 16.4146H142.77V12.8967C142.77 11.7921 142.345 11.2324 141.527 11.2324C140.817 11.2324 140.158 11.7155 140.158 12.6924V16.4146H138.783V7.41016H140.154V11.1175H140.18C140.37 10.7999 140.643 10.5392 140.968 10.3626C141.294 10.1859 141.661 10.0997 142.031 10.113C143.336 10.113 144.135 11.1281 144.135 12.7413L144.141 16.4146Z" fill="white"/>
<path d="M151.138 13.658H147.029C147.055 14.8263 147.826 15.4861 148.97 15.4861C149.537 15.4919 150.1 15.3931 150.632 15.1945L150.844 16.148C150.187 16.416 149.482 16.545 148.772 16.5268C146.842 16.5268 145.703 15.3073 145.703 13.4153C145.703 11.5234 146.872 10.0996 148.619 10.0996C150.192 10.0996 151.182 11.268 151.182 13.0344C151.192 13.2433 151.177 13.4526 151.138 13.658ZM149.882 12.6811C149.882 11.7277 149.401 11.0552 148.526 11.0552C147.737 11.0552 147.119 11.7405 147.038 12.6811H149.882Z" fill="white"/>
</svg>
