<svg width="340" height="173" viewBox="0 0 340 173" fill="none" xmlns="http://www.w3.org/2000/svg">
<path fill-rule="evenodd" clip-rule="evenodd" d="M112.041 95.1557L106.835 92.6839L115.755 91.3616L112.041 95.1557ZM96.7814 99.51L100.808 105.379L113.668 110.352L125.689 104.768L126.94 109.103L128.09 103.282C130.852 101.202 133.611 99.1203 136.373 97.0406L142.094 85.7556L146.48 70.2015L161.068 54.3893L166.177 58.785L177.815 36.2051L183.095 41.4458L189.112 29.4156L225.716 0L242.004 37.4203L229.873 53.3543L248.922 74.2441L222.207 126.366L187.961 109.621L168.692 118.627L153.166 125.618L128.959 129.632L130.534 125.631L118.464 127.372L103.768 124.454L91.7095 114.672L86.0784 101.59L90.7645 86.7589L98.8522 80.605L110.444 81.601L105.797 86.8027L102.654 90.3217L98.2368 92.2943L96.7814 99.51ZM116.527 89.1503L104.649 91.3445L111.992 83.1937L116.527 89.1503Z" fill="#646464"/>
<path fill-rule="evenodd" clip-rule="evenodd" d="M237.174 97.1627L248.923 74.2444L153.167 125.619L237.174 97.1627Z" fill="#FABE0A"/>
<path fill-rule="evenodd" clip-rule="evenodd" d="M103.612 119.686L102.271 111.045L110.032 121.763L118.547 123.58L140.383 118.658L156.046 105.391L142.715 94.8215L150.27 95.238L157.369 83.6972L156.273 90.3796L165.816 90.5793L174.009 84.5301L175.02 77.9865L180.839 91.9065L219.324 113.227L228.882 67.7462L225.5 54.1964L228.193 38.8591L188.255 44.8255L226.359 30.3015L222.183 10.0645L182.609 45.0252L176.88 54.1842L166.177 58.7844L159.606 65.8784L160.973 60.2602L150.456 75.5293L147.789 85.3946L142.715 94.8215L133.147 108.23L140.383 118.658L129.387 111.479L114.828 116.982L102.271 111.045L96.1153 106.06L93.2362 98.623L95.2362 91.6727L91.9395 93.2143L89.4463 98.8568L90.2741 105.486L94.9504 113.381L103.612 119.686ZM166.104 108.116L161.034 104.443L153.667 113.646L148.91 117.545L132.793 127.703L151.052 123.073L160.717 116.883L166.104 108.116ZM171.308 69.1051L162.043 84.8929L157.369 83.6972L156.695 77.8209L171.308 69.1051Z" fill="white"/>
<path d="M12.388 154.374H5.60916V158.093H11.7726V162.751H5.60916V171.289H0V149.718H12.388V154.374ZM38.6976 160.574C38.6976 163.506 37.7184 166.076 35.7672 168.287C33.5426 170.802 30.5268 172.064 26.7271 172.064C22.9324 172.064 19.9214 170.802 17.6944 168.287C15.7433 166.076 14.7665 163.506 14.7665 160.574C14.7665 159.237 15.0302 157.869 15.5601 156.461C16.0851 155.054 16.7933 153.846 17.6797 152.85C19.9068 150.332 22.9226 149.07 26.7271 149.07C30.5268 149.07 33.5426 150.332 35.7672 152.85C37.7184 155.058 38.6976 157.635 38.6976 160.574ZM32.8613 160.574C32.8613 159.052 32.3754 157.737 31.401 156.627C30.1532 155.209 28.5952 154.503 26.7271 154.503C25.4354 154.503 24.2681 154.866 23.2181 155.587C22.1753 156.315 21.4306 157.279 20.9812 158.482C20.7273 159.172 20.6027 159.868 20.6027 160.574C20.6027 162.033 21.0887 163.338 22.063 164.493C23.2669 165.92 24.8175 166.631 26.7271 166.631C28.6294 166.631 30.1849 165.925 31.401 164.507C32.3754 163.377 32.8613 162.067 32.8613 160.574ZM60.1916 171.289H53.2199L47.8695 163.041V171.289H42.2604V149.718H50.9928C53.5495 149.718 55.4371 150.483 56.663 152.014C57.652 153.249 58.1502 154.698 58.1502 156.364C58.1502 158.278 57.5812 159.802 56.4408 160.94C55.7106 161.668 54.707 162.174 53.4299 162.459L60.1916 171.289ZM52.3115 156.675C52.3115 155.906 52.0306 155.258 51.469 154.73C50.944 154.235 50.0917 153.987 48.9171 153.987H47.8695V159.388H48.9171C50.1015 159.388 50.9562 159.14 51.469 158.643C52.0306 158.105 52.3115 157.447 52.3115 156.675ZM93.1946 149.718L86.2912 171.289H80.5575L76.6162 158.789L72.482 171.289H66.7654L60.321 149.718H66.1964L69.9472 163.657L74.5259 149.718H78.9898L83.2485 163.657L87.3339 149.718H93.1946ZM115.99 171.289H109.99L108.596 167.537H100.84L99.3556 171.289H93.4217L101.727 149.718H107.856L115.99 171.289ZM107.106 163.268L104.755 156.381L102.371 163.268L100.84 167.537L107.106 163.268ZM136.42 171.289H129.448L124.097 163.041V171.289H118.488V149.718H127.221C129.777 149.718 131.665 150.483 132.891 152.014C133.88 153.249 134.378 154.698 134.378 156.364C134.378 158.278 133.809 159.802 132.669 160.94C131.941 161.668 130.935 162.174 129.66 162.459L136.42 171.289ZM128.539 156.675C128.539 155.906 128.259 155.258 127.697 154.73C127.172 154.235 126.32 153.987 125.145 153.987H124.097V159.388H125.145C126.329 159.388 127.184 159.14 127.697 158.643C128.259 158.105 128.539 157.447 128.539 156.675ZM157.757 160.491C157.757 162.739 157.083 164.814 155.726 166.728C154.37 168.642 152.639 169.967 150.527 170.707C149.408 171.095 148.273 171.289 147.11 171.289H138.82V149.718H147.11C149.137 149.718 151.013 150.283 152.742 151.41C154.439 152.504 155.743 153.97 156.651 155.804C157.391 157.318 157.757 158.882 157.757 160.491ZM151.921 160.491C151.921 158.999 151.506 157.696 150.673 156.585C149.56 155.114 147.911 154.374 145.711 154.374H144.429V166.631H145.711C147.921 166.631 149.569 165.893 150.673 164.422C151.506 163.302 151.921 161.992 151.921 160.491ZM182.621 171.289H170.331V149.718H182.621V154.374H175.94V158.093H182.262V162.751H175.94V166.631H182.621V171.289ZM198.553 171.289H186.199V149.718H191.808V166.631H198.553V171.289ZM213.734 171.289H201.444V149.718H213.734V154.374H207.055V158.093H213.378V162.751H207.055V166.631H213.734V171.289ZM233.753 156.826C233.753 158.772 233.294 160.384 232.376 161.663C231.182 163.316 229.204 164.142 226.437 164.142H222.923V171.289H217.314V149.718H226.252C228.798 149.718 230.728 150.461 232.046 151.944C233.187 153.222 233.753 154.849 233.753 156.826ZM227.917 156.892C227.917 156.079 227.68 155.426 227.209 154.942C226.74 154.457 225.939 154.213 224.808 154.213H222.923V159.646H224.794C226.01 159.646 226.847 159.376 227.302 158.843C227.712 158.363 227.917 157.71 227.917 156.892ZM256.102 171.289H250.493V162.33H242.354V171.289H236.742V149.718H242.354V158.061H250.493V149.718H256.102V171.289ZM281.164 171.289H275.166L273.769 167.537H266.014L264.529 171.289H258.595L266.9 149.718H273.03L281.164 171.289ZM272.28 163.268L269.928 156.381L267.545 163.268L266.014 167.537L272.28 163.268ZM305.227 171.289H299.615L289.271 158.078V171.289H283.662V149.718H289.271L299.615 162.912V149.718H305.227V171.289ZM322.582 154.374H317.91V171.289H312.301V154.374H307.73V149.718H322.582V154.374ZM340 164.152C340 167.802 338.401 170.179 335.194 171.282C334.076 171.677 332.877 171.872 331.59 171.872C328.889 171.872 326.386 171.056 324.078 169.429L326.477 164.919C328.164 166.448 329.812 167.213 331.429 167.213C332.152 167.213 332.774 167.042 333.277 166.701C333.866 166.319 334.164 165.774 334.164 165.067C334.164 164.427 333.839 163.894 333.185 163.467C332.699 163.151 331.876 162.822 330.73 162.493C329.336 162.082 328.462 161.797 328.105 161.641C327.531 161.397 327.045 161.112 326.645 160.789C325.495 159.841 324.921 158.407 324.921 156.493C324.921 154.493 325.514 152.84 326.711 151.518C328.098 149.971 329.959 149.202 332.276 149.202C334.606 149.202 336.887 149.784 339.123 150.953L336.887 155.312C335.661 154.342 334.427 153.858 333.18 153.858C332.579 153.858 332.039 154.014 331.563 154.321C331.028 154.671 330.757 155.134 330.757 155.723C330.757 156.293 331.109 156.79 331.817 157.204C332.137 157.394 333.082 157.723 334.667 158.19C336.65 158.772 338.066 159.593 338.908 160.66C339.639 161.565 340 162.73 340 164.152Z" fill="#131315"/>
<path fill-rule="evenodd" clip-rule="evenodd" d="M226.359 30.3027L188.255 44.8267L224.799 22.7363L226.359 30.3027ZM90.2741 105.487L89.4463 98.858L93.2362 98.6242L94.2472 101.235L90.2741 105.487ZM102.271 111.047L96.1153 106.062L94.9504 113.382L102.271 111.047ZM118.547 123.581L114.828 116.984L124.273 113.414L122.83 122.616L118.547 123.581ZM145.723 114.137L133.147 108.231L156.046 105.392L145.723 114.137ZM151.052 123.074L148.91 117.546L153.667 113.647L160.717 116.884L151.052 123.074ZM150.456 75.5305L147.789 85.3958L157.369 83.6984L156.695 77.8221L160.998 75.2553L159.606 65.8796L156.695 77.8221L150.456 75.5305ZM165.816 90.5805L162.043 84.8941L164.917 79.9944L174.009 84.5313L165.816 90.5805ZM176.88 54.1854L166.177 58.7856L171.308 69.1063L176.88 54.1854ZM228.882 67.7474L171.308 69.1063L225.5 54.1976L228.882 67.7474ZM194.951 99.7274L186.655 95.1296L224.965 86.3821L222.144 99.8029L194.951 99.7274Z" fill="#D9DADA"/>
<path fill-rule="evenodd" clip-rule="evenodd" d="M178.265 103.851L180.839 91.9057L228.882 67.7454L178.265 103.851Z" fill="black"/>
<path fill-rule="evenodd" clip-rule="evenodd" d="M162.043 84.8928L157.369 83.6971L156.695 77.8208L171.308 69.105L162.043 84.8928Z" fill="black"/>
<path fill-rule="evenodd" clip-rule="evenodd" d="M210.677 41.4745L188.255 44.8255L226.359 30.3015L210.677 41.4745Z" fill="black"/>
</svg>
