<svg width="85" height="85" viewBox="0 0 85 85" fill="none" xmlns="http://www.w3.org/2000/svg">
<path d="M64.7096 0.0923576C61.9679 0.552448 59.3627 2.76621 58.3576 5.4907C57.9147 6.70015 57.7447 11.059 58.0683 12.7448C58.6983 15.9972 61.5422 18.7895 64.7945 19.3174C68.507 19.9303 72.3895 17.3767 73.5646 13.5449C74.0582 11.9611 74.0582 7.41432 73.5646 5.8143C72.3895 2.01598 68.4384 -0.520523 64.7096 0.0923576ZM68.4555 3.36192C70.6178 4.43489 71.18 5.74564 71.18 9.69675C71.18 13.6642 70.6178 14.9414 68.4049 16.0651C67.3662 16.593 67.1276 16.6608 65.9019 16.6436C63.586 16.6264 61.9688 15.605 60.9979 13.5277C60.7593 13.0341 60.7087 12.3354 60.7087 9.69589C60.7087 6.61346 60.7258 6.42633 61.1173 5.62632C62.4615 2.93616 65.5946 1.96534 68.4555 3.36192Z" fill="#FABE0A"/>
<path d="M20.69 0.399473C19.6171 0.65527 15.7518 2.52825 12.4822 4.3669L11.5801 4.87763V6.69997V8.53947L13.0788 9.0502L14.5604 9.56094L14.611 10.7867L14.6625 11.9962H15.1561H15.6668V14.5327C15.6668 17.5636 15.8205 18.5001 16.6033 20.1525C17.7441 22.5362 20.145 24.3413 22.751 24.7843C26.6506 25.4658 30.703 22.7405 31.9125 18.6537C32.1168 17.9559 32.1846 16.985 32.1846 14.8563V11.9953H32.7803H33.376V10.8202V9.64506L34.8747 9.15149L36.3563 8.64076L36.4069 6.78494L36.4584 4.91197L32.5245 2.83469C27.8755 0.365139 26.939 0.0758629 23.8403 0.0930309C22.5974 0.0930309 21.4394 0.212347 20.69 0.399473ZM26.7862 3.08963C27.7056 3.34542 33.5468 6.37636 33.5468 6.58065C33.5468 6.64846 32.8996 6.90426 32.0996 7.1592L30.6524 7.6356V8.45277V9.27081H24.0283H17.387L17.3355 8.45363L17.2849 7.65362L15.9226 7.17723C15.1732 6.92143 14.5089 6.64932 14.4411 6.58151C14.3217 6.4622 19.2265 3.80552 20.5888 3.2613C22.2059 2.61323 24.8961 2.52825 26.7862 3.08963ZM29.4258 15.0949C29.3751 17.9215 29.3408 18.2958 28.9657 19.0967C27.9099 21.4641 25.1004 22.6898 22.4265 21.9748C20.86 21.549 19.8042 20.6975 19.072 19.2503L18.4763 18.0752L18.4248 15.0443L18.357 11.9962H23.9253H29.4944L29.4258 15.0949Z" fill="#646464"/>
<path d="M55.1401 20.7138C52.1941 21.3438 49.4353 23.319 48.3289 25.5842L47.7666 26.725L47.716 41.4891L47.6816 56.2695H51.2576H54.8336V68.3941C54.8336 75.0688 54.9186 80.8423 55.0036 81.1994C55.2251 82.153 55.9916 83.1745 56.9616 83.7711L57.7787 84.2818L65.2715 84.3333C70.2269 84.3676 73.0536 84.3161 73.633 84.1968C74.7738 83.9582 75.6931 83.2947 76.2553 82.3402L76.7154 81.5573L76.8004 68.9563L76.8854 56.3553L80.512 56.3047L84.1223 56.2704L84.088 41.405L84.0374 26.5559L83.6288 25.7894C82.6073 23.8477 81.1764 22.5026 79.0991 21.5155C77.1068 20.5619 76.5789 20.5112 66.0896 20.4769C57.541 20.4237 56.3487 20.458 55.1401 20.7138ZM76.851 23.4889C78.8605 24.0168 80.4442 25.1576 81.0743 26.537C81.3807 27.2014 81.3979 27.9508 81.3979 40.3809V53.5442L77.7875 53.5785L74.1609 53.6291L74.0759 67.4567C74.0252 75.0517 73.9222 81.335 73.8544 81.42C73.7695 81.4878 70.1935 81.5556 65.9024 81.5556C59.7212 81.5556 58.0354 81.5049 57.8646 81.3341C57.6946 81.1642 57.6259 78.371 57.5925 67.3366L57.5581 53.5433H53.9821H50.4061V40.4668V27.4057L50.8147 26.5542C51.4791 25.1241 52.9598 24.0168 54.8843 23.4889C56.2294 23.1318 75.4545 23.1318 76.851 23.4889Z" fill="#FABE0A"/>
<path d="M15.0705 23.6601C11.7159 24.273 9.02491 26.1803 7.78198 28.8198L7.23691 29.9606L7.18627 37.147L7.13477 44.3496H8.49701H9.87642V37.6568C9.87642 30.1469 9.92707 29.807 11 28.5297C12.0387 27.3203 13.5202 26.5717 15.3426 26.316L16.3469 26.1795L20.025 31.2714C22.0517 34.0808 23.771 36.3118 23.8397 36.2268C23.9075 36.159 25.5083 33.8602 27.4157 31.1521C29.3058 28.4276 30.8895 26.1795 30.9238 26.146C30.941 26.1117 31.6217 26.1803 32.4226 26.2996C34.8921 26.6404 36.8501 27.8318 37.6673 29.5005C38.0587 30.2842 38.0587 30.4199 38.1102 36.4654L38.1617 42.6466H39.5239H40.869V36.959C40.869 33.8431 40.784 30.8799 40.699 30.3864C40.4098 28.837 39.7626 27.7125 38.5025 26.4696C36.5951 24.5966 34.3307 23.6601 31.1462 23.4558L29.5281 23.3537L26.65 27.4748C25.0663 29.7229 23.7384 31.5787 23.6869 31.5787C23.6354 31.5787 22.2568 29.74 20.6388 27.4919L17.6928 23.4052L16.9778 23.4224C16.5855 23.4215 15.734 23.5408 15.0705 23.6601Z" fill="#646464"/>
<path d="M0 65.038V84.1953H5.19404H10.3881V70.2321V56.2689H27.5865H44.785V54.9066V53.5444H26.2243H7.66274V67.5076V81.4708H5.19404H2.72449V65.038V48.6053H23.7547H44.785V47.243V45.8808H22.3925H0V65.038Z" fill="#646464"/>
</svg>
