<svg width="158" height="92" viewBox="0 0 158 92" fill="none" xmlns="http://www.w3.org/2000/svg">
<path d="M149.483 67.6665C149.483 69.369 147.83 70.7309 145.835 70.7309H9.54072C7.5464 70.7309 5.89258 69.369 5.89258 67.6665V57.9381C5.89258 56.2357 7.5464 56.8194 9.54072 56.8194H145.835C147.83 56.8194 149.483 58.1813 149.483 59.8838V67.6665Z" fill="white" stroke="#646464" stroke-width="3" stroke-miterlimit="10" stroke-linecap="round" stroke-linejoin="round"/>
<path d="M12.7012 78.367C12.7012 69.0764 20.2407 61.4883 29.5799 61.4883C38.8705 61.4883 46.4586 69.0278 46.4586 78.367" fill="white"/>
<path d="M12.7012 78.367C12.7012 69.0764 20.2407 61.4883 29.5799 61.4883C38.8705 61.4883 46.4586 69.0278 46.4586 78.367" stroke="#646464" stroke-width="3" stroke-miterlimit="10" stroke-linecap="round" stroke-linejoin="round"/>
<path d="M42 77.5C42 84.4149 36.4149 90 29.5 90C22.5851 90 17 84.4149 17 77.5C17 70.5851 22.5851 65 29.5 65C36.3706 65 42 70.5851 42 77.5Z" fill="white" stroke="#646464" stroke-width="3" stroke-miterlimit="10" stroke-linecap="round" stroke-linejoin="round"/>
<path d="M136 77.5C136 84.4149 130.415 90 123.5 90C116.585 90 111 84.4149 111 77.5C111 70.5851 116.585 65 123.5 65C130.371 65 136 70.5851 136 77.5Z" fill="white" stroke="#646464" stroke-width="3" stroke-miterlimit="10" stroke-linecap="round" stroke-linejoin="round"/>
<path d="M36.292 77.7612C36.292 81.5067 33.2762 84.5225 29.5307 84.5225C25.7853 84.5225 22.7695 81.5067 22.7695 77.7612C22.7695 74.0158 25.7853 71 29.5307 71C33.2762 71 36.292 74.0158 36.292 77.7612Z" fill="white" stroke="#646464" stroke-width="3" stroke-miterlimit="10" stroke-linecap="round" stroke-linejoin="round"/>
<path d="M130.292 77.7612C130.292 81.5067 127.276 84.5225 123.531 84.5225C119.785 84.5225 116.77 81.5067 116.77 77.7612C116.77 74.0158 119.785 71 123.531 71C127.276 71 130.292 74.0158 130.292 77.7612Z" fill="white" stroke="#646464" stroke-width="3" stroke-miterlimit="10" stroke-linecap="round" stroke-linejoin="round"/>
<path d="M11.5832 72.7744C11.5832 73.9418 10.7076 74.866 9.63751 74.866H4.14099C3.07087 74.866 2.19531 73.9418 2.19531 72.7744V68.4939C2.19531 67.3265 3.07087 66.4023 4.14099 66.4023H9.63751C10.7076 66.4023 11.5832 67.3265 11.5832 68.4939V72.7744Z" fill="white" stroke="#646464" stroke-width="3" stroke-miterlimit="10" stroke-linecap="round" stroke-linejoin="round"/>
<path d="M155.659 77.9788C155.659 79.1462 154.783 80.0704 153.713 80.0704H140.871C139.801 80.0704 138.926 79.1462 138.926 77.9788V68.9314C138.926 67.764 139.801 66.8398 140.871 66.8398H153.713C154.783 66.8398 155.659 67.764 155.659 68.9314V77.9788Z" fill="white" stroke="#646464" stroke-width="3" stroke-miterlimit="10" stroke-linecap="round" stroke-linejoin="round"/>
<path d="M155.999 62.9967C155.999 64.0668 155.123 64.9424 154.053 64.9424C152.983 64.9424 152.107 64.0668 152.107 62.9967V57.4515C152.107 56.3814 152.983 55.5059 154.053 55.5059C155.123 55.5059 155.999 56.3814 155.999 57.4515V62.9967Z" fill="white" stroke="#646464" stroke-width="3" stroke-miterlimit="10" stroke-linecap="round" stroke-linejoin="round"/>
<path d="M146.567 25.8345C144.232 21.7486 139.952 14.7441 131.585 14.7441H120.008C115.339 14.7441 111.496 18.5382 111.496 23.2565V61.6835C112.518 61.6349 118.695 61.3917 124.97 61.6835C136.06 62.17 137.86 71.266 137.86 71.266L137.811 71.4119H145.545C150.215 71.4119 154.058 67.6178 154.058 62.8996C154.058 62.8996 154.058 57.2085 154.058 52.1984C154.058 36.9248 149.242 30.5041 146.567 25.8345Z" fill="white" stroke="#646464" stroke-width="3" stroke-miterlimit="10" stroke-linecap="round" stroke-linejoin="round"/>
<path d="M118.426 20.2889V40.9617H133.407L137.737 45.2908C137.737 45.2908 139.099 45.2908 142.406 45.2908C147.805 45.2908 149.897 45.6799 147.66 37.9459C145.276 29.7254 136.569 20.2402 136.569 20.2402H118.426V20.2889Z" fill="white" stroke="#646464" stroke-width="3" stroke-miterlimit="10" stroke-linecap="round" stroke-linejoin="round"/>
<path d="M138.271 25.3477C138.271 25.3477 136.423 26.1259 137.639 28.4121C138.855 30.6496 141.53 33.9573 141.53 33.9573C141.53 33.9573 143.476 35.903 145.859 33.8114" stroke="#646464" stroke-width="3" stroke-miterlimit="10" stroke-linecap="round" stroke-linejoin="round"/>
<path d="M108.04 76.6659C108.04 78.5629 106.532 80.0708 104.635 80.0708H51.0319C49.1349 80.0708 47.627 78.5629 47.627 76.6659V72.3854C47.627 70.4884 49.1349 68.9805 51.0319 68.9805H104.635C106.532 68.9805 108.04 70.4884 108.04 72.3854V76.6659Z" fill="white" stroke="#646464" stroke-width="3" stroke-miterlimit="10" stroke-linecap="round" stroke-linejoin="round"/>
<path d="M106.531 60.1757H2V9.53949C2 5.40493 5.35629 2 9.53949 2H99.0405C103.175 2 106.58 5.35629 106.58 9.53949V60.1757H106.531Z" fill="white" stroke="#646464" stroke-width="3" stroke-miterlimit="10" stroke-linecap="round" stroke-linejoin="round"/>
<path fill-rule="evenodd" clip-rule="evenodd" d="M64.6144 34.2501L71 31.0872V25.2593L64.6144 28.4223V34.2501ZM65.1192 16.7417L70.9748 13.8278V8L57.0426 14.8988L57.0931 37.9859L63.4787 34.823L63.4282 16.2685L65.1192 16.7417ZM49.5466 41.7466L55.1497 38.9572V33.1294L49.5466 35.8939V41.7466ZM42.0505 50.7374V54L48.436 50.837L48.4108 32.2826L50.1018 32.7558L55.9574 29.8419V24.0141L42 30.9626L42.0505 50.7374ZM64.5892 25.6827L70.1923 22.8933V17.0655L64.5892 19.8549V25.6827Z" fill="#FABE0A"/>
</svg>
