<svg width="78" height="92" viewBox="0 0 78 92" fill="none" xmlns="http://www.w3.org/2000/svg">
<path d="M46.31 63.5237C46.31 66.1722 44.1586 68.3235 41.5101 68.3235H12.7882C10.1397 68.3235 7.98837 66.1722 7.98837 63.5237V6.79984C7.98837 4.15136 10.1397 2 12.7882 2H41.5101C44.1586 2 46.31 4.15136 46.31 6.79984V51.8326" stroke="#646464" stroke-width="3" stroke-miterlimit="10" stroke-linecap="round" stroke-linejoin="round"/>
<path d="M65.5698 58.2943C68.964 65.6227 73.9352 75.4281 76.1037 84.8392C73.9267 75.4195 68.9554 65.6227 65.5698 58.2943ZM65.5698 58.2943C65.047 57.1544 64.5841 55.9887 64.1898 54.7973M64.1898 54.7973C63.127 51.566 62.8528 50.006 60.9243 48.8404M64.1898 54.7973C63.1185 51.566 62.8442 50.0146 60.9243 48.8404M60.9243 48.8404C59.93 48.2318 58.2329 47.5976 57.6329 47.0404M60.9243 48.8404C59.93 48.2404 58.2243 47.5976 57.6329 47.0404M57.6329 47.0404C52.5245 42.232 49.8932 36.7465 46.4219 33.1895C49.9018 36.7465 52.5245 42.232 57.6329 47.0404Z" stroke="#646464" stroke-width="3" stroke-miterlimit="10" stroke-linecap="round" stroke-linejoin="round"/>
<path d="M48.9927 83.6643C52.6012 84.8299 54.7697 89.9983 54.7697 89.9983C54.7611 90.0069 52.6012 84.8385 48.9927 83.6643ZM48.9927 83.6643C43.1558 81.0929 38.373 76.3531 38.373 72.1875C38.373 76.3531 43.1472 81.1015 48.9927 83.6643Z" stroke="#646464" stroke-width="3" stroke-miterlimit="10" stroke-linecap="round" stroke-linejoin="round"/>
<path d="M39.171 75.3678L25.9286 74.0135L20.8973 74.0649M20.8973 74.0649C14.5461 73.8078 15.2575 68.3223 21.3516 68.7337M20.8973 74.0649C14.5461 73.8164 15.2575 68.3223 21.3516 68.7337M21.3516 68.7337L30.797 68.3223" stroke="#646464" stroke-width="3" stroke-miterlimit="10" stroke-linecap="round" stroke-linejoin="round"/>
<path d="M62.1428 82.9267C48.5575 76.224 50.666 68.3129 46.7318 63.8816M46.7318 63.8816C42.7205 60.2731 42.8148 60.0417 41.6834 58.4475M46.7318 63.8816C42.7291 60.2731 42.8148 60.0417 41.6834 58.4475M41.6834 58.4475C41.6834 58.4475 31.7752 60.3246 31.3209 55.9618M41.6834 58.4475C41.6834 58.4475 31.7752 60.3331 31.3209 55.9618M31.3209 55.9618C31.1323 54.359 32.5723 54.3076 36.4722 53.0991M36.4722 53.0991C38.195 52.5677 40.3206 50.6134 42.592 50.4077M36.4722 53.0991C38.195 52.5591 40.3206 50.6134 42.592 50.4077M42.592 50.4077C46.1747 50.202 50.1003 55.9361 54.7716 57.7361C57.3858 59.2532 57.9943 60.7617 60.12 63.0673" stroke="#646464" stroke-width="3" stroke-miterlimit="10" stroke-linecap="round" stroke-linejoin="round"/>
<path d="M7.99001 54.5917L7.21004 54.6431C0.738829 55.1059 1.20166 61.62 7.67288 61.1657L7.99001 61.1486V54.5917Z" stroke="#646464" stroke-width="3" stroke-miterlimit="10" stroke-linecap="round" stroke-linejoin="round"/>
<path d="M7.98909 45.4119H6.87485C0.386488 45.3948 0.36935 51.926 6.85771 51.9431L7.98909 51.9774V45.4119Z" stroke="#646464" stroke-width="3" stroke-miterlimit="10" stroke-linecap="round" stroke-linejoin="round"/>
<path d="M19.7617 17.668H35.7212" stroke="#FABE0A" stroke-width="2.35411" stroke-miterlimit="10"/>
<path d="M36.2068 22.2793H18.9531" stroke="#FABE0A" stroke-width="2.35411" stroke-miterlimit="10"/>
<path d="M20.5684 26.8906H34.9507" stroke="#FABE0A" stroke-width="2.35411" stroke-miterlimit="10"/>
<path d="M24.6055 11.8828H30.6824" stroke="#FABE0A" stroke-width="2.35411" stroke-miterlimit="10"/>
<path d="M35.7212 35.0586H19.7617" stroke="#FABE0A" stroke-width="2.35411" stroke-miterlimit="10"/>
<path d="M18.9531 39.6719H36.2068" stroke="#FABE0A" stroke-width="2.35411" stroke-miterlimit="10"/>
</svg>
