<svg width="64" height="64" viewBox="0 0 64 64" fill="none" xmlns="http://www.w3.org/2000/svg">
<path d="M18.1328 38.3984H9.59961V40.5317H18.1328V38.3984Z" fill="#FABE0A"/>
<path d="M42.5332 45H34V47.1333H42.5332V45Z" fill="#FABE0A"/>
<path d="M25.599 14.9336H23.4668V17.0669H25.599V14.9336Z" fill="#FABE0A"/>
<path d="M29.8647 14.9336H27.7324V17.0669H29.8647V14.9336Z" fill="#FABE0A"/>
<path d="M34.1342 14.9336H32.002V17.0669H34.1342V14.9336Z" fill="#FABE0A"/>
<path d="M38.3998 14.9336H36.2676V17.0669H38.3998V14.9336Z" fill="#FABE0A"/>
<path d="M63.8874 50.7209L60.6875 44.321C60.5068 43.9596 60.1374 43.7314 59.7334 43.7314H53.3335V40.5315C53.3335 39.9424 52.8559 39.4648 52.2668 39.4648H30.9338C30.3448 39.4648 29.8672 39.9424 29.8672 40.5315V59.7311C29.8672 60.3202 30.3448 60.7978 30.9338 60.7978H35.3519C35.9295 63.0706 38.2403 64.4447 40.5129 63.8671C42.0211 63.4837 43.1988 62.306 43.5822 60.7978H51.3516C51.9292 63.0706 54.24 64.4447 56.5126 63.8671C58.0209 63.4837 59.1986 62.306 59.5819 60.7978H62.9333C63.5224 60.7978 64 60.3202 64 59.7311V51.198C64 51.0324 63.9614 50.869 63.8874 50.7209ZM39.467 61.8644C38.2888 61.8644 37.3337 60.9094 37.3337 59.7311C37.3337 58.5529 38.2888 57.5979 39.467 57.5979C40.6453 57.5979 41.6003 58.5529 41.6003 59.7311C41.5991 60.9089 40.6447 61.8632 39.467 61.8644ZM51.2002 58.6645H43.5822C43.0986 56.7856 41.4071 55.4704 39.467 55.4646C37.5269 55.4704 35.8355 56.7856 35.3519 58.6645H32.0005V41.5981H51.2002V58.6645ZM57.6001 45.8647H59.0741L61.2075 50.1313H57.6001V45.8647ZM55.4668 61.8644C54.2885 61.8644 53.3335 60.9094 53.3335 59.7311C53.3335 58.5529 54.2885 57.5979 55.4668 57.5979C56.645 57.5979 57.6001 58.5529 57.6001 59.7311C57.5989 60.9089 56.6445 61.8632 55.4668 61.8644ZM61.8667 58.6645H59.5819C59.0983 56.7856 57.4069 55.4704 55.4668 55.4646C54.7155 55.4688 53.9791 55.6738 53.3335 56.0581V45.8647H55.4668V51.198C55.4668 51.787 55.9444 52.2646 56.5334 52.2646H61.8667V58.6645Z" fill="white"/>
<path d="M58.7598 17.8164L55.4552 14.5112C52.9983 12.0574 49.6704 10.6753 46.198 10.6665H37.9254L32.9056 2.63489C32.7105 2.32303 32.3688 2.13343 32.0009 2.1333H28.801C28.2117 2.13356 27.7341 2.61156 27.7344 3.20101C27.7344 3.28795 27.745 3.37448 27.7661 3.45888L29.5681 10.6665H21.0615L18.0897 0.760387C17.9544 0.309062 17.5389 0 17.0679 0H11.7346C11.1456 0 10.668 0.477592 10.668 1.06665V11.7331H10.678C10.6745 12.0147 10.7833 12.2862 10.9805 12.4873L17.6471 19.1538C20.3975 21.9223 24.1412 23.4751 28.0437 23.4663H28.3342L25.6839 29.4334C25.4448 29.9716 25.6873 30.6019 26.2256 30.8411C26.2569 30.855 26.2888 30.8674 26.3213 30.8782L29.5191 31.9448C29.9671 32.094 30.4598 31.9311 30.7306 31.5443L36.3817 23.4663H56.4167C58.2438 23.4696 59.7277 21.9912 59.7312 20.1641C59.7327 19.2834 59.3832 18.4385 58.7598 17.8164ZM31.4098 4.2666L35.4097 10.6665H31.7672L30.1671 4.2666H31.4098ZM12.8013 2.1333H16.2741L18.8341 10.6665H12.8013V2.1333ZM29.439 29.6692L28.1103 29.226L31.616 21.333H35.2706L29.439 29.6692ZM57.5109 20.6018C57.3332 21.049 56.8977 21.3399 56.4167 21.333H37.874L38.1924 20.8778C38.53 20.395 38.4123 19.7298 37.9295 19.3922C37.7503 19.267 37.5371 19.1997 37.3185 19.1997H30.9227C30.501 19.1997 30.1188 19.4481 29.9478 19.8335L29.2818 21.333H28.0437C24.7073 21.3403 21.5067 20.0125 19.1553 17.6456L14.3095 12.7998H46.198C48.5236 12.8098 50.7861 13.5567 52.6606 14.9331H44.8007V17.0664H54.9927L57.2541 19.3278C57.5957 19.6581 57.698 20.165 57.5109 20.6018Z" fill="white"/>
<path d="M26.147 61.0828C25.4754 60.3616 24.5746 59.8954 23.598 59.7635L27.671 48.359C27.8688 47.8034 27.5789 47.1928 27.0233 46.9949C27.0169 46.9926 27.0103 46.9904 27.0038 46.9882L24.4028 46.1212L22.3825 35.0098C22.2904 34.5024 21.8486 34.1338 21.3331 34.1338H17.0665V30.9338C17.0665 30.3448 16.5889 29.8672 15.9998 29.8672H11.7333C11.1442 29.8672 10.6666 30.3448 10.6666 30.9338V34.1338H6.40001C5.88442 34.1338 5.44269 34.5026 5.35056 35.0098L3.33033 46.1212L0.729303 46.9882C0.169979 47.1753 -0.131616 47.7804 0.0554477 48.3396C0.057581 48.3461 0.0598477 48.3525 0.0621143 48.359L4.13511 59.7639C3.16006 59.8967 2.26088 60.3627 1.59022 61.0828C1.20423 61.5689 0.620772 61.8567 0.000115324 61.8667V64C1.15596 63.9937 2.25661 63.5046 3.03606 62.651C3.42206 62.1645 4.00578 61.8767 4.6267 61.8667C4.85203 61.8648 5.07563 61.9065 5.28523 61.9895C5.29416 61.9935 5.29989 62.002 5.30896 62.0057C5.64349 62.1724 5.94722 62.3946 6.20735 62.663C6.9948 63.5093 8.09665 63.993 9.25263 64C10.4082 63.9936 11.5086 63.5042 12.2875 62.6505C12.9586 61.774 14.2131 61.6073 15.0896 62.2783C15.2293 62.3852 15.3544 62.5103 15.4615 62.65C16.2396 63.504 17.3394 63.9934 18.4947 64C19.6501 63.993 20.7511 63.509 21.5374 62.6625C21.7952 62.3961 22.0961 62.1749 22.4275 62.0084C22.4371 62.0044 22.4432 61.9953 22.4525 61.9911C22.6627 61.9071 22.8871 61.8649 23.1133 61.8668C23.7328 61.8768 24.315 62.1645 24.6993 62.6506C25.4778 63.5042 26.5778 63.9934 27.733 64.0001V61.8668C27.1135 61.8567 26.5313 61.5689 26.147 61.0828ZM12.7999 32.0005H14.9332V34.1338H12.7999V32.0005ZM12.7999 59.8724C12.0546 60.103 11.3803 60.5195 10.8406 61.0828C10.1678 61.9603 8.91103 62.1261 8.03358 61.4533C7.89438 61.3467 7.76985 61.222 7.66305 61.0828C7.33199 60.7593 6.96493 60.4748 6.56907 60.235L2.43754 48.6674L12.7999 45.2136V59.8724ZM13.5291 42.7216L5.63842 45.3519L7.29013 36.2671H20.443L22.0947 45.3519L14.204 42.7216C13.9849 42.6487 13.7482 42.6487 13.5291 42.7216ZM21.1619 60.2419C20.7707 60.4807 20.4078 60.7629 20.08 61.0833C19.4103 61.9589 18.1575 62.1257 17.282 61.456C17.1418 61.3488 17.0165 61.2235 16.9093 61.0833C16.3664 60.5143 15.6857 60.0951 14.9333 59.8664V45.2136L25.2957 48.6674L21.1619 60.2419Z" fill="white"/>
<path d="M42.6654 14.9336H40.5332V17.0669H42.6654V14.9336Z" fill="#FABE0A"/>
</svg>
