<svg width="65" height="65" viewBox="0 0 65 65" fill="none" xmlns="http://www.w3.org/2000/svg">
<path d="M50.232 36.915C50.232 36.915 42.1572 31.9325 42.1471 31.9263C41.5659 31.5677 40.7833 31.7568 40.4258 32.3337C40.0676 32.9118 40.2577 33.6988 40.8333 34.0537C40.8333 34.0537 48.9133 39.0394 48.9183 39.0424C49.4992 39.4008 50.2812 39.2164 50.6383 38.635C50.9954 38.0535 50.8134 37.2734 50.232 36.915Z" fill="#FABE0A"/>
<path d="M37.2351 29.1133C36.4367 29.1132 35.8347 29.8732 36.0172 30.6502C36.0898 30.9597 36.3026 31.2408 36.5828 31.4183C36.7752 31.5402 36.9995 31.6133 37.2323 31.6133C37.6697 31.6133 38.0685 31.3922 38.2972 31.0198C38.7845 30.2265 38.172 29.1134 37.2351 29.1133Z" fill="#FABE0A"/>
<path d="M24.2914 32.2683C23.9388 31.7067 23.1258 31.5252 22.5674 31.8779C22.5674 31.8779 14.5447 36.9369 14.5312 36.9454C13.9531 37.3099 13.7767 38.0909 14.1408 38.6685C14.3597 39.0159 14.7821 39.2195 15.2002 39.2313C15.4355 39.2379 15.6693 39.1838 15.865 39.0604C15.865 39.0604 23.8956 33.9953 23.9012 33.9917C24.4792 33.6272 24.6547 32.8468 24.2914 32.2683Z" fill="#FABE0A"/>
<path d="M27.4605 29.0176C26.88 29.0176 26.3714 29.4256 26.243 29.9911C26.0681 30.7614 26.678 31.5176 27.463 31.5176C28.0424 31.5176 28.5539 31.1097 28.6818 30.5437C28.8569 29.7687 28.2526 29.0176 27.4605 29.0176Z" fill="#FABE0A"/>
<path d="M63.6953 56.9376C63.2423 56.4166 62.4528 56.3616 61.9318 56.8146C60.5989 57.9734 59.3654 59.1749 57.6165 59.6583C55.6724 60.1956 53.8248 59.7716 52.0653 58.8918L58.5752 36.9889C58.7372 36.444 58.5109 35.8584 58.0248 35.5637L52.0019 31.9144V21.2578C52.0019 20.5675 51.4423 20.0078 50.7519 20.0078H48.2519V16.2578C48.2519 15.5675 47.6923 15.0078 47.0019 15.0078H43.0644V11.2578C43.0644 10.5675 42.5048 10.0078 41.8144 10.0078H35.752V1.25781C35.752 0.567561 35.1923 0.0078125 34.502 0.0078125H29.502C28.8116 0.0078125 28.252 0.567561 28.252 1.25781V10.0078H22.1895C21.4991 10.0078 20.9395 10.5675 20.9395 11.2578V15.0078H17.002C16.3116 15.0078 15.752 15.5675 15.752 16.2578V20.0078H13.252C12.5616 20.0078 12.002 20.5675 12.002 21.2578V31.9144L5.97926 35.5636C5.49301 35.8582 5.26688 36.4439 5.42888 36.9887C5.42888 36.9887 11.9227 58.8374 11.9255 58.8469C11.8146 58.4739 9.81437 58.2283 9.46075 58.1826C5.82113 57.7116 3.05351 59.5348 0.431768 61.8144C-0.0892308 62.2674 -0.144231 63.0568 0.308644 63.5778C0.741018 64.0751 1.54564 64.1586 2.07202 63.7009C4.77301 61.3529 7.81813 59.5631 11.3919 61.3502C14.6249 62.9666 17.9714 63.6597 21.3387 61.8877C24.054 60.4584 26.6742 59.2243 29.705 60.6673L32.8208 62.1511C35.4866 63.4206 38.5301 63.3913 41.1707 62.0708C42.7979 61.2572 44.4518 60.1744 46.3106 60.0467C48.1326 59.9216 49.8931 60.5999 51.4939 61.4011C53.6088 62.4586 56.0847 62.6698 58.3557 62.0224C60.4475 61.4261 61.9699 60.0938 63.572 58.7008C64.0932 58.2479 64.1481 57.4586 63.6953 56.9376ZM49.5019 22.5078V30.3996L36.4772 22.5078H49.5019ZM30.752 2.50781H33.252V10.0078H30.752V2.50781V2.50781ZM23.4395 12.5078H40.5644V15.0078H23.4395V12.5078V12.5078ZM14.502 22.5078H27.5267L14.502 30.3996V22.5078ZM30.752 58.3971C30.7522 58.1749 28.9701 57.7652 28.737 57.7147C26.5615 57.2438 24.226 57.5428 22.2537 58.5809C20.8227 59.3341 19.4421 60.2127 17.8055 60.4234C17.8025 60.4238 17.7995 60.4242 17.7965 60.4246C16.8402 60.5408 15.8615 60.4704 14.936 60.2006L8.10013 37.2017L30.752 23.4768C30.752 23.4768 30.752 58.3957 30.752 58.3971ZM18.252 20.0078V17.5078H45.7519V20.0078H18.252ZM49.7547 57.8901C49.7686 57.5033 46.2498 57.5068 46.0141 57.5317C43.8443 57.7612 41.9673 58.8776 40.0526 59.8349C37.7906 60.9659 35.4631 60.6408 33.252 59.5874V23.4768L55.9038 37.2017L49.7547 57.8901Z" fill="white"/>
</svg>
