<svg width="64" height="40" viewBox="0 0 64 40" fill="none" xmlns="http://www.w3.org/2000/svg">
<path d="M9.25 21.75H14.75V4.25H9.25V21.75ZM10.75 5.75H13.25V20.25H10.75V5.75Z" fill="#FABE0A"/>
<path d="M29.25 21.75H34.75V4.25H29.25V21.75ZM30.75 5.75H33.25V20.25H30.75V5.75Z" fill="#FABE0A"/>
<path d="M49.25 21.75H54.75V4.25H49.25V21.75ZM50.75 5.75H53.25V20.25H50.75V5.75Z" fill="#FABE0A"/>
<path d="M39.25 21.75H44.75V4.25H39.25V21.75ZM40.75 5.75H43.25V20.25H40.75V5.75Z" fill="white"/>
<path d="M19.25 21.75H24.75V4.25H19.25V21.75ZM20.75 5.75H23.25V20.25H20.75V5.75Z" fill="white"/>
<path d="M64 28.25H60.75V0.25H3.25V28.25H0V33.75H5.41813C5.30925 34.1486 5.25 34.5674 5.25 35C5.25 37.6191 7.38088 39.75 10 39.75C12.6191 39.75 14.75 37.6191 14.75 35C14.75 34.5674 14.6907 34.1486 14.5819 33.75H17.4181C17.3093 34.1486 17.25 34.5674 17.25 35C17.25 37.6191 19.3809 39.75 22 39.75C24.6191 39.75 26.75 37.6191 26.75 35C26.75 34.5674 26.6907 34.1486 26.5819 33.75H37.4181C37.3093 34.1486 37.25 34.5674 37.25 35C37.25 37.6191 39.3809 39.75 42 39.75C44.6191 39.75 46.75 37.6191 46.75 35C46.75 34.5674 46.6907 34.1486 46.5819 33.75H49.4181C49.3093 34.1486 49.25 34.5674 49.25 35C49.25 37.6191 51.3809 39.75 54 39.75C56.6191 39.75 58.75 37.6191 58.75 35C58.75 34.5674 58.6907 34.1486 58.5819 33.75H64V28.25ZM4.75 1.75H59.25V24.25H4.75V1.75ZM4.75 25.75H59.25V28.25H4.75V25.75ZM10 38.25C8.208 38.25 6.75 36.792 6.75 35C6.75 33.208 8.208 31.75 10 31.75C11.792 31.75 13.25 33.208 13.25 35C13.25 36.792 11.792 38.25 10 38.25ZM22 38.25C20.208 38.25 18.75 36.792 18.75 35C18.75 33.208 20.208 31.75 22 31.75C23.792 31.75 25.25 33.208 25.25 35C25.25 36.792 23.792 38.25 22 38.25ZM42 38.25C40.2079 38.25 38.75 36.792 38.75 35C38.75 33.208 40.2079 31.75 42 31.75C43.7921 31.75 45.25 33.208 45.25 35C45.25 36.792 43.7921 38.25 42 38.25ZM54 38.25C52.2079 38.25 50.75 36.792 50.75 35C50.75 33.208 52.2079 31.75 54 31.75C55.7921 31.75 57.25 33.208 57.25 35C57.25 36.792 55.7921 38.25 54 38.25ZM62.5 32.25H57.8693C57.0074 31.0408 55.5948 30.25 54 30.25C52.4052 30.25 50.9926 31.0408 50.1307 32.25H45.8694C45.0075 31.0408 43.5949 30.25 42.0001 30.25C40.4054 30.25 38.9927 31.0408 38.1309 32.25H25.8695C25.0076 31.0408 23.595 30.25 22.0002 30.25C20.4055 30.25 18.9929 31.0408 18.131 32.25H13.8696C13.0078 31.0408 11.5951 30.25 10.0004 30.25C8.40562 30.25 6.993 31.0408 6.13112 32.25H1.5V29.75H62.5V32.25Z" fill="white"/>
<path d="M10 32.75C8.75937 32.75 7.75 33.7594 7.75 35C7.75 36.2406 8.75937 37.25 10 37.25C11.2406 37.25 12.25 36.2406 12.25 35C12.25 33.7594 11.2406 32.75 10 32.75ZM10 35.75C9.58637 35.75 9.25 35.4136 9.25 35C9.25 34.5864 9.58637 34.25 10 34.25C10.4136 34.25 10.75 34.5864 10.75 35C10.75 35.4136 10.4136 35.75 10 35.75Z" fill="white"/>
<path d="M22 32.75C20.7594 32.75 19.75 33.7594 19.75 35C19.75 36.2406 20.7594 37.25 22 37.25C23.2406 37.25 24.25 36.2406 24.25 35C24.25 33.7594 23.2406 32.75 22 32.75ZM22 35.75C21.5864 35.75 21.25 35.4136 21.25 35C21.25 34.5864 21.5864 34.25 22 34.25C22.4136 34.25 22.75 34.5864 22.75 35C22.75 35.4136 22.4136 35.75 22 35.75Z" fill="white"/>
<path d="M42 32.75C40.7594 32.75 39.75 33.7594 39.75 35C39.75 36.2406 40.7594 37.25 42 37.25C43.2406 37.25 44.25 36.2406 44.25 35C44.25 33.7594 43.2406 32.75 42 32.75ZM42 35.75C41.5864 35.75 41.25 35.4136 41.25 35C41.25 34.5864 41.5864 34.25 42 34.25C42.4136 34.25 42.75 34.5864 42.75 35C42.75 35.4136 42.4136 35.75 42 35.75Z" fill="white"/>
<path d="M54 32.75C52.7594 32.75 51.75 33.7594 51.75 35C51.75 36.2406 52.7594 37.25 54 37.25C55.2406 37.25 56.25 36.2406 56.25 35C56.25 33.7594 55.2406 32.75 54 32.75ZM54 35.75C53.5864 35.75 53.25 35.4136 53.25 35C53.25 34.5864 53.5864 34.25 54 34.25C54.4136 34.25 54.75 34.5864 54.75 35C54.75 35.4136 54.4136 35.75 54 35.75Z" fill="white"/>
</svg>
