<svg width="64" height="46" viewBox="0 0 64 46" fill="none" xmlns="http://www.w3.org/2000/svg">
<path d="M14.9332 33.1328C11.4036 33.1328 8.5332 36.0032 8.5332 39.5328C8.5332 43.0624 11.4036 45.9328 14.9332 45.9328C18.4628 45.9328 21.3332 43.0624 21.3332 39.5328C21.3332 36.0032 18.4627 33.1328 14.9332 33.1328ZM14.9332 43.7994C12.5801 43.7994 10.6666 41.8858 10.6666 39.5328C10.6666 37.1797 12.5802 35.2662 14.9332 35.2662C17.2862 35.2662 19.1998 37.1798 19.1998 39.5328C19.1998 41.8858 17.2862 43.7994 14.9332 43.7994Z" fill="white"/>
<path d="M51.1988 33.1328C47.6692 33.1328 44.7988 36.0032 44.7988 39.5328C44.7988 43.0624 47.6692 45.9328 51.1988 45.9328C54.7285 45.9328 57.5988 43.0624 57.5988 39.5328C57.5988 36.0032 54.7285 33.1328 51.1988 33.1328ZM51.1988 43.7994C48.8457 43.7994 46.9322 41.8858 46.9322 39.5328C46.9322 37.1797 48.8458 35.2662 51.1988 35.2662C53.552 35.2662 55.4655 37.1798 55.4655 39.5328C55.4655 41.8858 53.552 43.7994 51.1988 43.7994Z" fill="white"/>
<path d="M63.8302 27.2238L54.2302 12.2904C54.034 11.9853 53.6958 11.8008 53.3331 11.8008H41.5998C41.01 11.8008 40.5332 12.2787 40.5332 12.8674V39.534C40.5332 40.1239 41.01 40.6007 41.5998 40.6007H45.8665V38.4673H42.6665V13.9342H52.7507L61.8665 28.1144V38.4675H56.5331V40.6008H62.9331C63.523 40.6008 63.9997 40.124 63.9997 39.5342V27.8008C63.9999 27.597 63.9412 27.3954 63.8302 27.2238Z" fill="white"/>
<path d="M46.9342 25.6666V18.2H55.4675V16.0666H45.8675C45.2777 16.0666 44.8009 16.5445 44.8009 17.1332V26.7332C44.8009 27.3231 45.2777 27.7998 45.8675 27.7998H61.8675V25.6664H46.9342V25.6666Z" fill="white"/>
<path d="M41.6 4.33398H1.06662C0.477875 4.33398 0 4.81186 0 5.40061V39.534C0 40.1239 0.477875 40.6006 1.06662 40.6006H9.6V38.4672H2.13337V6.46723H40.5334V38.4672H20.2666V40.6006H41.6C42.1899 40.6006 42.6666 40.1239 42.6666 39.534V5.40061C42.6666 4.81186 42.1899 4.33398 41.6 4.33398Z" fill="white"/>
<path d="M7.46836 34.1992H1.06836V36.3326H7.46836V34.1992Z" fill="white"/>
<path d="M40.5337 34.1992H22.4004V36.3326H40.5337V34.1992Z" fill="white"/>
<path d="M62.9346 34.1992H58.668V36.3326H62.9346V34.1992Z" fill="white"/>
<path d="M39.0001 9H4.00012V11H39.0001V9Z" fill="#FABE0A"/>
<path d="M15.9986 38.4668H13.8652V40.6002H15.9986V38.4668Z" fill="white"/>
<path d="M52.2681 38.4668H50.1348V40.6002H52.2681V38.4668Z" fill="white"/>
<path d="M19.1991 0.0666504H4.26575V2.20003H19.1991V0.0666504Z" fill="white"/>
<path d="M2.13337 0.0666504H0V2.20003H2.13337V0.0666504Z" fill="white"/>
</svg>
