<svg width="65" height="64" viewBox="0 0 65 64" fill="none" xmlns="http://www.w3.org/2000/svg">
<path d="M13.9341 24.6729C14.1665 24.4404 14.3003 24.1177 14.3003 23.7891C14.3003 23.459 14.1665 23.1377 13.9341 22.9053C13.7002 22.6714 13.3789 22.5391 13.0503 22.5391C12.7202 22.5391 12.3989 22.6714 12.165 22.9053C11.9326 23.1377 11.7988 23.459 11.7988 23.7891C11.7988 24.1177 11.9326 24.4404 12.165 24.6729C12.3989 24.9053 12.7202 25.0391 13.0503 25.0391C13.3789 25.0391 13.7002 24.9053 13.9341 24.6729Z" fill="#FABE0A"/>
<path d="M59.0518 16.3638C63.0001 12.4155 64.8087 6.76999 63.8897 1.26216C63.8018 0.735794 63.3892 0.323196 62.8624 0.235305C57.355 -0.684131 51.7095 1.12447 47.7613 5.07272L38.915 13.9189L34.9023 13.5366C35.02 13.1645 35.082 12.7729 35.082 12.3721C35.082 11.3462 34.6826 10.3818 33.9575 9.65671C33.2319 8.93161 32.2676 8.53171 31.2422 8.53171C30.2163 8.53171 29.2519 8.93113 28.5268 9.65671L25.54 12.643L21.5766 12.2651C22.0156 10.9311 21.7065 9.40281 20.6479 8.34421C19.1503 6.84714 16.7148 6.84714 15.2172 8.34421L12.1913 11.3701L7.0678 10.8813C6.69622 10.8462 6.32854 10.978 6.06487 11.2417L0.491126 16.8154C0.209387 17.0972 0.0790158 17.4956 0.139563 17.8892C0.199622 18.2827 0.443763 18.6235 0.796791 18.8076L8.03802 22.5845C8.22259 22.6807 8.42034 22.7266 8.61517 22.7266C9.06585 22.7266 9.5014 22.4814 9.72455 22.0542C10.0439 21.4424 9.80658 20.687 9.19427 20.3677L3.4633 17.3789L7.41644 13.4258L36.6226 16.2119L24.4892 28.3452L18.061 24.9927C17.4492 24.6733 16.6943 24.9107 16.375 25.523C16.0556 26.1353 16.2929 26.8902 16.9052 27.2095L22.6357 30.1983L20.6728 32.1616C18.7177 34.1167 17.0058 36.2564 15.5517 38.5455L4.67961 38.7461C4.35637 38.752 4.04777 38.8833 3.81877 39.1119L0.912514 42.0181C0.606849 42.3238 0.480872 42.7657 0.579505 43.1871C0.678138 43.608 0.987709 43.9483 1.39738 44.0865L11.436 47.4717C10.9413 49.0792 10.5536 50.7286 10.2763 52.4122C10.2109 52.8096 10.3412 53.2139 10.6259 53.4991C10.8622 53.7354 11.1811 53.8653 11.5097 53.8653C11.5771 53.8653 11.645 53.8599 11.7128 53.8487C13.3964 53.5714 15.0458 53.1832 16.6533 52.689L20.0385 62.7276C20.1767 63.1373 20.5166 63.4464 20.9379 63.545C21.0322 63.5675 21.1279 63.5782 21.2226 63.5782C21.5503 63.5782 21.8696 63.4493 22.1069 63.212L25.0127 60.3062C25.2417 60.0772 25.373 59.7677 25.3784 59.4439L25.5678 48.5801C27.8618 47.1246 30.0049 45.4102 31.9629 43.4522L33.9263 41.4893L45.3169 63.3277C45.501 63.6808 45.8423 63.9249 46.2354 63.9855C46.2988 63.9952 46.3623 64.0001 46.4253 64.0001C46.7544 64.0001 47.0728 63.8697 47.3091 63.6339L52.8833 58.0597C53.1465 57.796 53.2788 57.4283 53.2437 57.0572L52.7549 51.9332L55.7808 48.9073C57.2779 47.4102 57.2779 44.9742 55.7808 43.4766C54.7217 42.418 53.1934 42.1089 51.8594 42.5479L51.4815 38.5845L54.4683 35.5977C55.1934 34.8726 55.5928 33.9082 55.5928 32.8828C55.5928 31.857 55.1939 30.8926 54.4683 30.1675C53.7432 29.4419 52.7788 29.0425 51.753 29.0425C51.3521 29.0425 50.9605 29.1045 50.5884 29.2227L50.2056 25.21L59.0518 16.3638ZM30.2949 11.4243C30.5478 11.1714 30.8843 11.0322 31.2422 11.0322C31.6001 11.0322 31.9365 11.1714 32.1894 11.4248C32.4429 11.6777 32.582 12.0141 32.582 12.3721C32.582 12.7124 32.4546 13.0327 32.2246 13.2812L28.768 12.9512L30.2949 11.4243ZM16.9853 10.1123C17.5078 9.58982 18.3579 9.58982 18.8803 10.1123C19.4023 10.6343 19.4023 11.4844 18.8803 12.0068L18.8789 12.0083L15.4194 11.6782L16.9853 10.1123ZM4.10539 42.3614L5.22991 41.2364L14.0839 41.0733C13.3935 42.379 12.7822 43.7256 12.2524 45.1085L4.10539 42.3614ZM22.8877 58.8956L21.7636 60.0196L19.0161 51.8726C20.3955 51.3443 21.7392 50.7344 23.0424 50.046L22.8877 58.8956ZM30.1953 41.6846C28.2304 43.6495 26.0659 45.3511 23.7417 46.7725C23.7041 46.7925 23.6674 46.815 23.6318 46.8389C20.3891 48.8048 16.8378 50.2247 13.0825 51.0426C14.4965 44.5464 17.7094 38.6607 22.4404 33.9297L49.5293 6.84079C52.3277 4.04195 56.1226 2.49996 60.0215 2.49996C60.5289 2.49996 61.0377 2.52584 61.546 2.57857C62.0049 6.9985 60.4468 11.4331 57.2842 14.5957L33.3696 38.5103C33.3667 38.5132 33.3638 38.5162 33.3608 38.5191L30.1953 41.6846ZM52.1182 45.2447C52.6407 44.7222 53.4903 44.7227 54.0127 45.2447C54.5352 45.7671 54.5352 46.6172 54.0127 47.1397L52.4468 48.7056L52.1167 45.2462L52.1182 45.2447ZM51.753 31.543C52.1109 31.543 52.4473 31.6822 52.7007 31.9356C52.9536 32.1885 53.0928 32.5249 53.0928 32.8828C53.0928 33.2408 52.9536 33.5772 52.7002 33.8301L51.1734 35.357L50.8438 31.9004C51.0923 31.6704 51.4126 31.543 51.753 31.543V31.543ZM50.6988 56.7086L46.7456 60.6617L35.7793 39.6358L47.9131 27.5025L50.6988 56.7086Z" fill="white"/>
<path d="M40.4849 25.4072C40.9732 24.9194 40.9732 24.1279 40.4849 23.6396C39.9966 23.1514 39.2051 23.1514 38.7168 23.6396L28.7451 33.6113C28.2568 34.0991 28.2568 34.8906 28.7451 35.3789C28.9893 35.6231 29.3091 35.7451 29.6289 35.7451C29.9492 35.7451 30.269 35.6231 30.5132 35.3789L40.4849 25.4072Z" fill="#FABE0A"/>
<path d="M43.125 22.2495C43.4448 22.2495 43.7647 22.1274 44.0088 21.8833L44.0195 21.8721C44.5078 21.3843 44.5078 20.5928 44.0195 20.1045C43.5317 19.6162 42.7402 19.6162 42.252 20.1045L42.2412 20.1152C41.7529 20.6035 41.7529 21.395 42.2412 21.8833C42.4854 22.1274 42.8052 22.2495 43.125 22.2495Z" fill="#FABE0A"/>
</svg>
