<svg width="64" height="64" viewBox="0 0 64 64" fill="none" xmlns="http://www.w3.org/2000/svg">
<g clip-path="url(#clip0_123_1076)">
<path d="M62.3678 44.1286H53.6488V29.7856C53.6488 29.2678 53.2291 28.8481 52.7113 28.8481C52.1934 28.8481 51.7738 29.2678 51.7738 29.7856V44.1286C49.8538 44.1286 37.5359 44.1286 35.4834 44.1286V40.0661C35.4834 39.5483 35.0638 39.1286 34.5459 39.1286H25.132C25.132 37.9759 25.132 18.6926 25.132 16.78H35.7794V20.6368C35.7794 21.4623 36.4509 22.1338 37.2764 22.1338H39.6294C40.4549 22.1338 41.1265 21.4623 41.1265 20.6368V16.78H51.7739V26.0374C51.7739 26.5553 52.1935 26.9749 52.7114 26.9749C53.2293 26.9749 53.6489 26.5553 53.6489 26.0374V16.5374C53.6489 15.6374 52.9166 14.905 52.0165 14.905C47.4148 14.905 36.5673 14.905 32.2846 14.905V1.65777C32.2846 0.757765 31.5524 0.0253906 30.6523 0.0253906H13.4335C12.5334 0.0253906 11.8011 0.75764 11.8011 1.65777V7.58476C11.8011 8.10264 12.2209 8.52226 12.7386 8.52226C13.2564 8.52226 13.6761 8.10264 13.6761 7.58476V1.90039H19.3693V5.75714C19.3693 6.58264 20.0408 7.25414 20.8663 7.25414H23.2194C24.0449 7.25414 24.7164 6.58264 24.7164 5.75714V1.90039H30.4095V14.905H24.1946C23.6769 14.905 23.2571 15.3246 23.2571 15.8425V23.655H13.6763V11.333C13.6763 10.8151 13.2565 10.3955 12.7388 10.3955C12.221 10.3955 11.8013 10.8151 11.8013 11.333V23.6551H6.281C5.38088 23.6551 4.64863 24.3873 4.64863 25.2874V39.1286H1.63225C0.73225 39.1286 0 39.8609 0 40.761V63.0397C0 63.5576 0.41975 63.9772 0.9375 63.9772H10.8645C11.3823 63.9772 11.802 63.5576 11.802 63.0397C11.802 62.5219 11.3823 62.1022 10.8645 62.1022H1.875V41.0036H15.0681V44.8603C15.0681 45.6858 15.7398 46.3574 16.5651 46.3574H18.9181C19.7436 46.3574 20.4151 45.6858 20.4151 44.8603V41.0036H33.6083V62.1022H14.6128C14.095 62.1022 13.6753 62.5219 13.6753 63.0397C13.6753 63.5576 14.095 63.9772 14.6128 63.9772H63.0624C63.5803 63.9772 63.9999 63.5576 63.9999 63.0397V45.761C64 44.861 63.2678 44.1286 62.3678 44.1286V44.1286ZM22.8413 5.37901H21.2443V1.90051H22.8413V5.37901ZM39.2514 16.78V20.2586H37.6544V16.78H39.2514ZM14.0918 25.5301H15.6889V29.0086H14.0918V25.5301ZM6.52363 25.5301H12.2168V29.3868C12.2168 30.2123 12.8884 30.8838 13.7138 30.8838H16.0669C16.8924 30.8838 17.5639 30.2123 17.5639 29.3868V25.5301H23.257V39.1286C19.6331 39.1286 9.5525 39.1286 6.52363 39.1286V25.5301ZM18.5401 44.4823H16.9431V41.0036H18.5401V44.4823ZM49.6028 46.0036V49.4823H48.0056V46.0036H49.6028ZM62.125 62.1022H35.4834V46.0036H46.1306V49.8603C46.1306 50.6858 46.8023 51.3574 47.6278 51.3574H49.9808C50.8063 51.3574 51.4779 50.6858 51.4779 49.8603V46.0036H62.1251V62.1022H62.125Z" fill="white"/>
<line x1="5" y1="59" x2="31" y2="59" stroke="#FABE0A" stroke-width="2"/>
<line x1="16" y1="21" x2="22" y2="21" stroke="#FABE0A" stroke-width="2"/>
</g>
<defs>
<clipPath id="clip0_123_1076">
<rect width="64" height="64" fill="white"/>
</clipPath>
</defs>
</svg>
