<svg width="77" height="64" viewBox="0 0 77 64" fill="none" xmlns="http://www.w3.org/2000/svg">
<path d="M0 32.0004V64H24.7521H49.5043V37.85C49.5043 19.1269 49.4497 11.5901 49.3024 11.3149C49.1925 11.095 46.6622 8.45439 43.6735 5.44657L38.2278 1.25771e-06H19.1232H0V32.0004ZM35.3864 8.5284V14.1215H40.9786H46.5709V37.5935V61.0662H24.7521H2.93336V32.0011V2.93598H19.1599H35.3864V8.5284ZM41.8034 7.79477L45.1958 11.187H41.7488H38.3204V7.79477C38.3204 5.9244 38.3391 4.40252 38.3758 4.40252C38.3937 4.4018 39.9333 5.92368 41.8034 7.79477Z" fill="white"/>
<path d="M8.60718 17.6039C8.53393 17.6612 8.47864 18.3451 8.47864 19.125V20.5128H24.6061H40.7521L40.6968 19.0297L40.6415 17.5659L24.6786 17.5093C15.9011 17.4899 8.66247 17.5279 8.60718 17.6039Z" fill="white"/>
<path d="M8.60718 25.8C8.53393 25.8514 8.47864 26.4738 8.47864 27.1828V28.4445H24.6061H40.7521L40.6968 27.0961L40.6415 25.7654L24.6786 25.714C15.9011 25.6964 8.66247 25.7309 8.60718 25.8Z" fill="white"/>
<path d="M8.60725 33.7729C8.53396 33.8289 8.47864 34.5059 8.47864 35.2772V36.6496H24.6154H40.7521V35.1453V33.6411H24.7433C15.924 33.6418 8.66258 33.6978 8.60725 33.7729Z" fill="white"/>
<path d="M8.5339 43.2047L8.58916 44.5812H24.6154H40.6416L40.6969 43.2047L40.7521 41.8461H24.6147H8.47864L8.5339 43.2047Z" fill="white"/>
<path d="M8.5339 51.2722L8.58916 52.7863H24.6154H40.6416L40.6969 51.2722L40.7521 49.7778H24.6147H8.47864L8.5339 51.2722Z" fill="white"/>
<path d="M63.0923 30.0936C60.6447 30.6407 58.6848 32.475 57.9455 34.9005C57.7606 35.5069 57.746 35.6769 57.7384 36.7493C57.7384 37.8363 57.7533 37.9844 57.9455 38.5981C58.2709 39.6556 58.6481 40.2988 59.4911 41.2234C61.2362 43.124 61.4288 43.4272 61.4288 44.3292C61.4215 45.1352 61.1772 45.5716 59.9276 46.9396C59.6393 47.2577 59.2399 47.7677 59.055 48.0786C58.7147 48.6184 58.212 49.8976 58.212 50.223V50.393H55.5717H52.9392L52.6359 50.5707C52.4659 50.6741 52.2588 50.8812 52.1627 51.0439L52 51.3471L52.0149 55.4143C52.0371 59.3854 52.0371 59.4818 52.1926 59.6813C52.4441 60.0216 52.7251 60.1844 53.1317 60.2284L53.5161 60.2655L53.531 61.7373C53.5532 63.3717 53.5904 63.5122 54.0709 63.83L54.3148 64H64.4905C74.4442 64 74.6735 64 74.9029 63.8522C75.3761 63.5712 75.3983 63.4602 75.4427 61.7817L75.4798 60.2655L75.8642 60.2284C76.2708 60.184 76.5519 60.0213 76.8034 59.6813C76.9588 59.4818 76.9588 59.3854 76.981 55.4143L76.9959 51.3471L76.8332 51.0439C76.7371 50.8812 76.53 50.6741 76.36 50.5707L76.0568 50.393H73.4381H70.8128L70.7313 49.9937C70.5169 48.9803 69.866 47.7827 69.0823 46.9542C67.7511 45.5491 67.3739 44.7577 67.6033 43.8185C67.7288 43.286 68.1431 42.6795 69.0156 41.7626C70.0585 40.6607 70.317 40.3131 70.6424 39.6327C71.1455 38.5679 71.2638 38.0132 71.2638 36.7486C71.2565 35.425 71.1306 34.8703 70.5613 33.7167C69.7255 32.0306 68.1875 30.7587 66.3092 30.1966C65.6215 29.9899 63.8098 29.9309 63.0923 30.0936ZM65.5993 32.3636C66.5236 32.5853 67.5148 33.2289 68.0841 33.9831C68.735 34.8484 69.0084 35.662 69.0084 36.7489C69.0084 38.1169 68.6312 38.9305 67.3888 40.1951C66.457 41.1565 66.1537 41.5485 65.7915 42.2656C65.3922 43.0494 65.2812 43.5229 65.2812 44.4028C65.2885 45.0609 65.318 45.2608 65.4883 45.7191C65.8359 46.6582 66.1687 47.1391 67.2556 48.3149C67.8027 48.914 68.2465 49.6461 68.3797 50.1859L68.4317 50.393H64.4975H60.5632L60.6149 50.1859C60.7554 49.6166 61.1842 48.9213 61.835 48.2115C62.6115 47.3757 63.0108 46.8137 63.3213 46.1482C63.5507 45.6528 63.7578 44.8392 63.7578 44.3809C63.7578 43.5823 63.3362 42.3399 62.7891 41.5412C62.6559 41.349 62.1459 40.7721 61.6578 40.2617C60.3564 38.9083 59.9865 38.1318 59.9865 36.7417C59.9865 35.492 60.4081 34.4567 61.2806 33.5765C62.412 32.4379 64.0388 31.9792 65.5993 32.3636ZM74.7027 55.3109V57.9362H64.4975H54.2922V55.3109V52.6856H64.4975H74.7027V55.3109ZM73.2237 61.0049V61.7813H64.4975H55.7712V61.0049V60.2284H64.4975H73.2237V61.0049Z" fill="#FABE0A"/>
</svg>
