<svg width="32" height="64" viewBox="0 0 32 64" fill="none" xmlns="http://www.w3.org/2000/svg">
<path d="M3.30054 0.238852C3.0883 0.376647 2.85059 0.663991 2.76308 0.888642C2.66316 1.16358 2.62528 3.50087 2.62528 8.63845V16.001H1.73778C0.900564 16.001 0.825463 16.0258 0.42514 16.4261L0 16.8513V40.0001V63.1497L0.42514 63.5748L0.85028 63.9999H16.0005H31.1501L31.5752 63.5748L32.0004 63.1497V40.0001V16.8506L31.5752 16.4255C31.1756 16.0258 31.1005 16.0003 30.2626 16.0003H29.3751V8.62539C29.3751 2.5252 29.3503 1.16293 29.2001 0.81289C28.8376 -0.0497962 29.6004 0.000486616 15.975 0.000486616C4.11295 0.00113967 3.6754 0.0135477 3.30054 0.238852ZM10.6259 6.68843C10.6259 9.92562 10.6631 10.851 10.8009 11.1886C10.9883 11.6262 11.5382 12.001 12.0012 12.001C12.4642 12.001 13.0134 11.6262 13.2015 11.1886C13.3393 10.851 13.3765 9.92628 13.3765 6.68843V2.62577H16.0005H18.6258V6.68843C18.6258 11.1756 18.663 11.4512 19.3631 11.8012C19.8379 12.0513 20.1631 12.0513 20.6379 11.8012C21.3379 11.4512 21.3752 11.1762 21.3752 6.68843V2.62577H24.0004H26.6257V9.31306V16.0003H16.0005H5.37595V9.31306V2.62577H8.00124H10.6259V6.68843ZM29.3131 40.0256V61.3126H16.0005H2.68798L2.65075 40.1255C2.63835 28.4757 2.65075 18.8758 2.67557 18.8137C2.70039 18.7262 7.23782 18.7014 16.0129 18.7138L29.3124 18.7386V40.0256H29.3131Z" fill="white"/>
<path d="M22.7844 39.4489H12.66V33.6711C12.66 31.8844 14.1133 30.4311 15.9 30.4311C17.6867 30.4311 19.1422 31.8844 19.1422 33.6711V39.4489H21.5733V33.6711C21.5711 30.5444 19.0267 28 15.9 28C12.7733 28 10.2289 30.5444 10.2289 33.6711V39.4489H8V48.5644C8 49.2356 8.54444 49.78 9.21556 49.78H24V40.6644C24 39.9933 23.4556 39.4489 22.7844 39.4489Z" fill="#FABE0A"/>
</svg>
