<svg width="56" height="64" viewBox="0 0 56 64" fill="none" xmlns="http://www.w3.org/2000/svg">
<path d="M25.9743 0.717314C17.9833 1.43027 10.9804 5.6818 7.31576 12.0351C6.23992 13.9109 5.28952 16.6872 5.03992 18.6885C4.96504 19.326 4.94008 19.3516 4.50232 19.4136C2.92664 19.6511 1.78872 20.364 1.21336 21.4648L0.863281 22.1279V28.4549C0.863281 34.5701 0.876081 34.7954 1.11352 35.308C1.63832 36.3839 2.96376 37.2965 4.22712 37.4469L4.8524 37.5218L4.92728 38.4722C5.07768 40.2354 5.2524 41.5359 5.48984 42.7493C7.31576 51.7656 12.9689 57.8687 21.1346 59.6568C21.9225 59.8322 22.823 60.0069 23.1602 60.0568C23.5602 60.1068 23.7478 60.1944 23.7478 60.3192C23.7478 60.7442 24.5234 61.9954 25.1231 62.533C26.0236 63.3458 26.3865 63.3957 30.4383 63.3458L33.815 63.308L34.4902 62.933C35.3151 62.4703 35.9282 61.7701 36.2034 60.9695C36.4914 60.1068 36.4159 57.2428 36.0908 56.6424C35.7529 56.005 35.015 55.2543 34.4524 54.9541C33.9647 54.6917 33.7522 54.6789 30.3756 54.6418C28.4121 54.6168 26.6361 54.629 26.4236 54.6796C25.5359 54.8421 24.4978 55.9423 23.9346 57.3311C23.6345 58.0562 23.6345 58.0562 23.159 58.0191C22.3084 57.9442 20.3449 57.4815 19.2575 57.0936C16.6815 56.1932 14.6303 54.9048 12.7295 53.004C9.62808 49.8904 7.902 46.0511 7.0892 40.4236C6.9644 39.573 6.92664 36.8344 6.92664 29.2306C6.92664 20.0012 6.9516 19.0636 7.15192 18.0376C8.30264 12.3352 12.1542 7.57043 17.7567 4.91891C27.8361 0.154114 40.542 3.15572 46.1951 11.6594C47.4578 13.573 48.2585 15.461 48.7961 17.7874C49.0335 18.8504 49.0585 19.388 49.0962 27.7919C49.1462 35.1455 49.1839 36.7212 49.3215 36.9464C49.7593 37.6095 51.7977 37.6716 53.0482 37.0591C53.8738 36.6591 54.8242 35.6581 55.0118 35.0085C55.0866 34.7205 55.1366 32.1695 55.1366 28.3429V22.1528L54.8114 21.5026C54.286 20.4396 53.2108 19.7144 51.7977 19.4642L51.0476 19.3266L50.8978 18.3263C49.8098 11.1858 44.1324 4.80755 36.4537 2.10611C33.2031 0.954754 29.2262 0.429954 25.9743 0.717314ZM4.8652 28.4178V35.4834H4.49016C3.96472 35.4834 3.31448 35.196 3.06424 34.8453C2.88888 34.5829 2.86392 33.8828 2.86392 28.4421C2.86392 24.5151 2.91384 22.252 2.98872 22.1016C3.16408 21.7637 3.57624 21.564 4.23928 21.4636C4.5516 21.4258 4.81464 21.3759 4.8396 21.3637C4.8524 21.3644 4.8652 24.5285 4.8652 28.4178ZM52.5369 21.6767C52.7244 21.7765 52.9369 21.964 53.0124 22.0895C53.0873 22.252 53.1372 24.4908 53.1372 28.4428C53.1372 33.8828 53.1122 34.5829 52.9369 34.846C52.6866 35.196 52.0364 35.484 51.511 35.484H51.1366V28.43V21.3765L51.6742 21.4392C51.9615 21.477 52.3494 21.5896 52.5369 21.6767ZM34.0159 56.981C34.3788 57.3439 34.3788 57.356 34.3788 58.8568C34.3788 61.4328 34.4914 61.3708 30.0396 61.3708C26.5753 61.3708 26.4255 61.3458 25.95 60.7077C25.7497 60.4325 25.6748 60.1196 25.6498 59.3823C25.5871 58.2066 25.7874 57.4437 26.2502 56.9688L26.6002 56.6188H30.1266H33.653L34.0159 56.981Z" fill="#FABE0A"/>
<path d="M25.824 6.10703C21.0841 6.53199 16.7449 8.45839 14.1184 11.3218C10.9171 14.7861 9.26588 19.4382 8.9158 25.9413L8.82812 27.5918L9.21596 27.9797C9.42844 28.18 9.7286 28.3547 9.89116 28.3547C10.279 28.3547 11.1168 27.7921 13.0054 26.2664C15.8195 24.0155 17.6825 22.8398 19.8086 22.0021C20.4966 21.7269 21.2096 21.4645 21.3971 21.4267L21.735 21.3518L21.36 22.1397C20.96 23.0152 20.622 24.3656 20.622 25.1912C20.622 25.4785 20.6848 26.1544 20.7724 26.692C20.8851 27.4798 20.9728 27.7301 21.2601 28.0053C21.4476 28.2056 21.735 28.3553 21.8982 28.3553C22.0736 28.3553 22.7238 27.9803 23.399 27.5048C26.4256 25.3409 29.4521 23.8408 32.4409 23.0152C33.5916 22.7029 33.8668 22.6651 35.8796 22.6773C37.8931 22.6773 38.1433 22.7022 39.031 23.0024C41.5948 23.8651 43.6083 25.6789 44.9337 28.3297C45.3843 29.2181 45.6716 29.4805 46.2092 29.4805C46.3219 29.4805 46.5721 29.3051 46.7846 29.0926L47.1724 28.7176L47.0848 26.7541C46.8473 21.1637 46.1094 17.675 44.5088 14.4731C42.6329 10.7585 39.7689 8.33295 35.7548 7.04463C32.8896 6.13199 29.3881 5.79407 25.824 6.10703ZM32.3142 8.28303C36.1913 8.87055 39.2672 10.484 41.2684 12.973C43.3568 15.5867 44.3449 18.5256 44.9452 24.0405L45.0329 24.7905L44.2323 24.0277C42.7443 22.5896 40.9184 21.6014 38.7923 21.076C37.2416 20.6881 34.3526 20.6881 32.5516 21.076C29.8502 21.6513 26.7987 22.9518 24.023 24.6901C23.31 25.14 22.6976 25.4651 22.6598 25.428C22.4972 25.2776 22.8851 23.6398 23.2473 22.9019C23.4598 22.4641 23.9475 21.7141 24.3353 21.2136C25.0854 20.2504 25.2358 19.7256 24.8729 19.2878C24.56 18.9128 24.2099 18.875 22.9971 19.0504C19.4457 19.5758 16.1312 21.1637 12.4921 24.0904C11.079 25.2161 11.054 25.2411 11.0163 24.9032C10.9536 24.4155 11.2166 22.2645 11.504 20.8513C12.8422 14.3105 16.5312 10.2088 22.4339 8.72079C23.6345 8.42063 24.7724 8.23311 26.686 8.04559C27.6371 7.94511 31.0636 8.09551 32.3142 8.28303Z" fill="white"/>
<path d="M9.30451 29.2686C9.00435 29.5189 8.94163 29.6814 8.89171 30.3317C8.76691 32.1077 9.27956 35.3467 10.0796 37.7224C12.6805 45.5387 20.1468 52.5794 26.7874 53.5048C30.589 54.0302 35.5042 51.7794 39.7058 47.5643C44.0328 43.2251 46.534 38.0597 47.0095 32.4699C47.1349 31.1694 47.1221 30.9192 46.9468 30.6568C46.6844 30.244 46.3093 30.0814 45.8716 30.1691C45.309 30.2939 45.1714 30.644 45.021 32.333C44.7708 35.1592 44.0706 37.6232 42.8322 40.1243C40.6312 44.5262 37.092 48.1781 33.0652 50.1787C30.989 51.204 29.7512 51.5419 28.0002 51.5419C26.2869 51.5419 25.0236 51.2168 23.0607 50.2536C21.0223 49.2533 19.6092 48.2152 17.7333 46.3643C15.2821 43.9259 13.6188 41.4619 12.4559 38.548C11.4677 36.0718 11.0428 34.0462 10.9052 31.2571C10.8175 29.419 10.7176 29.1688 10.0424 29.0312C9.74227 28.9813 9.57971 29.0312 9.30451 29.2686Z" fill="white"/>
</svg>
