<svg width="58" height="64" viewBox="0 0 58 64" fill="none" xmlns="http://www.w3.org/2000/svg">
<path d="M2.06781 6.19354H33.0849V13.4193C33.0849 13.9904 33.5469 14.4516 34.1188 14.4516H41.3562V22.7097H43.424V13.4193C43.424 13.1336 43.3073 12.8755 43.1201 12.6885L34.8519 4.43346C34.6635 4.24546 34.4051 4.12903 34.1188 4.12903H6.20342V2.06451H45.4918V24.7742H47.5596V1.03226C47.5596 0.461189 47.0977 0 46.5257 0H5.16952C4.59754 0 4.13562 0.461189 4.13562 1.03226V4.12903H1.0339C0.461925 4.12903 0 4.59022 0 5.16128V62.9677C0 63.5387 0.461925 63.9999 1.0339 63.9999H36.1866V61.9354H2.06781V6.19354ZM35.1527 7.65322L39.8942 12.3871H35.1527V7.65322Z" fill="white"/>
<path d="M56.5241 30.8559H54.9915C50.447 30.8559 46.1728 28.8188 43.2642 25.267L43.0585 25.0152C42.6729 24.5418 41.8797 24.5418 41.4941 25.0152L41.2884 25.266C38.3788 28.8188 34.1046 30.8559 29.5601 30.8559H28.0275C27.4645 30.8559 27.0098 31.3186 27.0098 31.8916V48.6663C27.0098 52.745 29.1715 56.536 32.651 58.5589L41.7709 63.863C41.927 63.954 42.1019 63.9996 42.2758 63.9996C42.4497 63.9996 42.6247 63.954 42.7807 63.863L51.9006 58.5589C55.3801 56.536 57.5418 52.745 57.5418 48.6663V31.8916C57.5418 31.3186 57.0871 30.8559 56.5241 30.8559V30.8559ZM55.5064 48.6663C55.5064 52.0036 53.7388 55.1047 50.8908 56.7595L42.2758 61.7718L33.6608 56.761C30.8129 55.1047 29.0452 52.0036 29.0452 48.6663V32.9274H29.5601C34.4167 32.9274 39.0029 30.8736 42.2758 27.2606C45.5477 30.8736 50.1349 32.9274 54.9915 32.9274H55.5064V48.6663Z" fill="#FABE0A"/>
<path d="M42.2751 34.0547C36.1242 34.0547 31.1191 39.1914 31.1191 45.5042C31.1191 51.817 36.1242 56.9537 42.2751 56.9537C48.426 56.9537 53.431 51.817 53.431 45.5042C53.431 39.1914 48.426 34.0547 42.2751 34.0547ZM42.2751 54.872C37.2418 54.872 33.1475 50.6699 33.1475 45.5042C33.1475 40.3385 37.2418 36.1364 42.2751 36.1364C47.3083 36.1364 51.4027 40.3385 51.4027 45.5042C51.4027 50.6699 47.3083 54.872 42.2751 54.872Z" fill="white"/>
<path d="M41.9704 48.661L40.1621 46.7717L38.7539 48.2429L41.7414 51.3641C41.9295 51.5617 42.1843 51.6689 42.4455 51.6689C42.5262 51.6689 42.6079 51.6587 42.6886 51.6379C43.0289 51.548 43.2978 51.2777 43.3995 50.9272L46.3869 40.5232L44.4789 39.9258L41.9704 48.661Z" fill="#FABE0A"/>
<path d="M4.10938 16.4414H31.1185V18.79H4.10938V16.4414Z" fill="white"/>
<path d="M4.10938 20.5508H31.1185V22.8994H4.10938V20.5508Z" fill="white"/>
<path d="M4.10938 24.6602H31.1185V27.0088H4.10938V24.6602Z" fill="white"/>
<path d="M4.10938 28.7715H24.6598V31.1201H4.10938V28.7715Z" fill="white"/>
<path d="M4.10938 32.8809H24.6598V35.2295H4.10938V32.8809Z" fill="white"/>
<path d="M4.10938 36.9902H24.6598V39.3389H4.10938V36.9902Z" fill="white"/>
<path d="M4.10938 49.3223H24.6598V51.6709H4.10938V49.3223Z" fill="white"/>
<path d="M4.10938 53.4316H24.6598V55.7803H4.10938V53.4316Z" fill="white"/>
<path d="M4.10938 57.541H24.6598V59.8896H4.10938V57.541Z" fill="white"/>
<path d="M5.28516 8.2207H7.04662V10.5693H5.28516V8.2207Z" fill="white"/>
<path d="M9.39453 8.2207H11.156V10.5693H9.39453V8.2207Z" fill="white"/>
<path d="M13.5039 8.2207H15.2654V10.5693H13.5039V8.2207Z" fill="white"/>
<path d="M17.6152 8.2207H31.1198V10.5693H17.6152V8.2207Z" fill="white"/>
</svg>
