<svg width="64" height="64" viewBox="0 0 64 64" fill="none" xmlns="http://www.w3.org/2000/svg">
<path d="M13.5374 17.6251C12.7865 17.9634 12.1558 18.2556 12.1328 18.2785C12.1157 18.3014 18.4615 18.3185 26.2348 18.3185C34.0138 18.3185 40.3768 18.3069 40.3768 18.2956C40.3768 18.2785 39.8493 17.986 39.2072 17.6364L38.038 17.0002H26.4643L14.8961 17.006L13.5374 17.6251Z" fill="#FABE0A"/>
<path d="M12.04 18.8753C12.0171 18.8924 12 22.0795 12 25.9548V32.9943H12.7454H13.4907V25.9148V18.8352H12.7857C12.3955 18.8349 12.0574 18.8524 12.04 18.8753Z" fill="#FABE0A"/>
<path d="M14.4648 25.9148V32.9943H15.2102H15.9555V25.9148V18.8352H15.2102H14.4648V25.9148Z" fill="#FABE0A"/>
<path d="M16.8711 25.9148V32.9943H17.6164H18.3618V25.9148V18.8352H17.6164H16.8711V25.9148Z" fill="#FABE0A"/>
<path d="M19.3379 25.9148V32.9943H20.0832H20.8286V25.9148V18.8352H20.0832H19.3379V25.9148Z" fill="#FABE0A"/>
<path d="M21.8594 25.9148V32.9943H22.576H23.2926V25.9148V18.8352H22.576H21.8594V25.9148Z" fill="#FABE0A"/>
<path d="M24.3076 18.8753C24.2847 18.8924 24.2676 22.0798 24.2676 25.9548V32.9943H25.0129H25.7583V25.9148V18.8352H25.0533C24.663 18.8349 24.3247 18.8524 24.3076 18.8753Z" fill="#FABE0A"/>
<path d="M26.7324 25.9148V32.9943H27.4491H28.1657V25.9148V18.8352H27.4491H26.7324V25.9148Z" fill="#FABE0A"/>
<path d="M29.1406 25.9148V32.9943H29.886H30.6313V25.9148V18.8352H29.886H29.1406V25.9148Z" fill="#FABE0A"/>
<path d="M31.6058 25.9148V32.9943H32.3511H33.0962V25.9148V18.8352H32.3508H31.6055V25.9148H31.6058Z" fill="#FABE0A"/>
<path d="M34.0137 25.9148V32.9943H34.759H35.5044V25.9148V18.8352H34.759H34.0137V25.9148Z" fill="#FABE0A"/>
<path d="M36.5352 25.9148V32.9943H37.2518H37.9684V25.9148V18.8352H37.2518H36.5352V25.9148Z" fill="#FABE0A"/>
<path d="M38.9436 25.9148V32.9943H39.689H40.4341V25.9148V18.8352H39.6887H38.9434V25.9148H38.9436Z" fill="#FABE0A"/>
<path d="M12.04 33.4926C12.0171 33.5098 12 33.8594 12 34.2664V35.0002H26.2165H40.4331V34.2264V33.4526H26.2566C18.4549 33.4526 12.0574 33.4697 12.04 33.4926Z" fill="#FABE0A"/>
<path d="M63.1916 59.9254L46.1893 42.897C49.9639 38.3596 52.2392 32.5313 52.2392 26.162C52.2392 11.7152 40.5435 0 26.1228 0C11.6956 0 0 11.7152 0 26.162C0 40.6087 11.6956 52.3239 26.1228 52.3239C32.4792 52.3239 38.3009 50.0487 42.8318 46.2675L59.8342 63.3024C60.297 63.7653 60.9098 64 61.5161 64C62.1224 64 62.7353 63.7653 63.1981 63.3024C64.1239 62.3637 64.1239 60.8577 63.1916 59.9254ZM26.1228 47.5583C14.3425 47.5583 4.75909 37.9554 4.75909 26.162C4.75909 14.362 14.3425 4.76561 26.1228 4.76561C37.8967 4.76561 47.4866 14.362 47.4866 26.162C47.4801 37.9554 37.8967 47.5583 26.1228 47.5583Z" fill="white"/>
</svg>
