<svg width="42" height="64" viewBox="0 0 42 64" fill="none" xmlns="http://www.w3.org/2000/svg">
<path d="M19.9031 0.0537847C19.8073 0.0973511 19.6507 0.218973 19.555 0.323351C19.3898 0.506239 19.3812 0.671429 19.3376 2.92463L19.294 5.32577L18.8416 6.03054C17.9194 7.47459 17.241 9.05795 17.0758 10.1453C16.9542 10.8759 17.1194 11.7636 17.5718 12.8509C18.0937 14.1298 19.3725 16.2528 19.7901 16.5396C20.0424 16.7134 20.425 16.7134 20.7122 16.5396C21.2082 16.2523 22.6781 13.695 23.1914 12.2592C23.4174 11.6238 23.461 11.372 23.461 10.6758C23.461 9.97103 23.4174 9.73641 23.1828 9.04887C22.861 8.1181 22.4344 7.23951 21.6952 6.02147L21.1647 5.1515V2.87244V0.584295L20.9296 0.323351C20.6686 0.0360855 20.2162 -0.0769143 19.9031 0.0537847ZM20.6863 7.94429C21.1302 8.72712 21.4869 9.63203 21.5908 10.2147C21.6693 10.5887 21.6607 10.8237 21.5563 11.2762C21.4084 11.9288 20.4077 14.0077 20.2602 13.9555C20.1036 13.9033 19.2686 12.2505 19.0685 11.6066C18.8075 10.7716 18.8684 10.0668 19.2686 9.14463C19.6689 8.21385 20.1994 7.26538 20.2952 7.32664C20.3383 7.35251 20.5121 7.63115 20.6863 7.94429Z" fill="#FABE0A"/>
<path d="M12.6749 1.22882C12.5097 1.39401 12.379 1.61184 12.379 1.71622C12.379 2.16868 13.3447 9.58086 13.4319 9.72835C13.5449 9.94572 13.9624 10.1545 14.3018 10.1545C14.6236 10.1545 15.1632 9.66708 15.1632 9.37165C15.1632 8.91919 14.1975 1.50701 14.1103 1.35952C13.9973 1.14214 13.5798 0.93339 13.2404 0.93339C13.0489 0.932936 12.8837 1.02007 12.6749 1.22882Z" fill="#FABE0A"/>
<path d="M26.5941 1.22793C26.4289 1.39311 26.2982 1.59325 26.2982 1.68038C26.2982 1.77613 26.0808 3.52469 25.8285 5.58637C25.411 8.87473 25.3674 9.35305 25.4718 9.59675C25.8022 10.4059 26.9245 10.3188 27.1682 9.47512C27.2812 9.08348 28.1253 2.29802 28.1253 1.82832C28.1166 1.30643 27.725 0.93249 27.1682 0.93249C26.968 0.932037 26.8028 1.01917 26.5941 1.22793Z" fill="#FABE0A"/>
<path d="M10.2037 8.38841C9.96002 8.47554 9.69045 8.78005 9.63826 9.0233C9.56883 9.35368 10.5518 14.3039 10.9521 15.6263C11.2824 16.7137 11.709 17.7665 12.0916 18.41C12.8222 19.6626 14.4233 20.6719 17.4416 21.8028C18.7291 22.2811 18.9642 22.3247 19.3468 22.0987C19.86 21.7941 19.8859 21.2024 19.4598 19.3063C18.9987 17.2446 18.4069 15.8614 17.659 15.1131C16.8934 14.3475 15.3364 13.6949 13.2048 13.2601L12.2477 13.06L11.8474 11.1027C11.6301 10.0326 11.4213 9.06686 11.3864 8.96249C11.2389 8.51865 10.6476 8.23139 10.2037 8.38841ZM14.0317 15.3477C15.8324 15.8174 16.5894 16.3828 17.0677 17.6267C17.3636 18.3923 17.7289 19.7928 17.6595 19.8627C17.5723 19.9498 15.7366 19.1234 15.0146 18.6796C14.2318 18.2013 13.788 17.7574 13.4748 17.1398C13.2661 16.7223 12.7265 15.2605 12.7265 15.104C12.7265 15.0173 12.8486 15.0345 14.0317 15.3477Z" fill="#FABE0A"/>
<path d="M29.6483 8.40516C29.2308 8.58804 29.1523 8.80542 28.7261 10.9456C28.491 12.1028 28.2914 13.0595 28.2823 13.0681C28.2651 13.0767 27.9605 13.1289 27.6038 13.1988C26.5687 13.3726 24.9245 13.8686 24.1589 14.2426C22.8193 14.8866 22.1408 15.7565 21.5318 17.6008C21.2273 18.5057 20.8533 20.1935 20.7662 21.0458C20.7049 21.6284 20.7049 21.6285 21.0181 21.9416C21.2441 22.1676 21.4011 22.2461 21.6098 22.2461C22.3754 22.2461 26.1947 20.5497 27.2735 19.7233C28.3 18.9491 29.0306 17.5831 29.6918 15.2428C29.9964 14.1555 30.9099 9.64044 30.9099 9.21386C30.9094 8.65748 30.1702 8.1787 29.6483 8.40516ZM27.7777 15.147C27.7777 15.3558 27.3424 16.5044 27.0384 17.113C26.6731 17.8178 26.1857 18.3047 25.3071 18.8007C24.5415 19.2355 22.9323 19.9489 22.8624 19.8794C22.8016 19.8186 23.1927 18.3224 23.4278 17.7048C23.6974 16.9827 24.1063 16.4173 24.576 16.0955C24.9935 15.826 26.1507 15.3994 27.1251 15.1647C27.7949 15.0082 27.7777 15.0082 27.7777 15.147Z" fill="#FABE0A"/>
<path d="M9.04675 17.8096C8.92512 17.9053 8.77718 18.1313 8.72499 18.297C8.62061 18.6015 8.64648 18.6709 9.62083 20.6718C10.1777 21.8027 10.6737 22.9164 10.7259 23.151C10.926 24.0382 11.3698 25.2826 11.7873 26.1611C12.4744 27.5966 13.3966 28.3885 15.5109 29.3624C16.581 29.8584 18.5905 30.5977 18.8601 30.5977C19.1904 30.5977 19.5735 30.3453 19.6951 30.0581C19.8258 29.7277 19.7559 28.9707 19.4691 27.6832C18.8251 24.8129 18.0682 23.4818 16.6504 22.7339C15.8499 22.3164 14.4758 21.864 13.1706 21.603C12.5788 21.4814 12.0832 21.377 12.0746 21.3593C12.066 21.3421 11.6743 20.5851 11.2133 19.663C10.7172 18.6714 10.2825 17.923 10.1432 17.8186C9.84728 17.5836 9.34264 17.5836 9.04675 17.8096ZM14.0319 23.6906C15.824 24.1517 16.5896 24.7344 17.0766 25.996C17.3548 26.7266 17.7292 28.1534 17.6506 28.2228C17.5721 28.3013 15.7106 27.4659 15.0144 27.0311C14.1708 26.5092 13.7442 26.0568 13.3961 25.2998C13.1438 24.7344 12.7263 23.5948 12.7263 23.4469C12.7267 23.3688 12.8488 23.3861 14.0319 23.6906Z" fill="#FABE0A"/>
<path d="M30.4049 17.7751C30.2919 17.8531 29.8309 18.6623 29.3435 19.6453C28.6559 21.0112 28.4299 21.3852 28.282 21.4115C28.169 21.4378 27.7515 21.5245 27.3426 21.603C25.4025 21.977 23.7756 22.6382 22.9669 23.3779C22.1491 24.1262 21.5052 25.6052 21.0441 27.7885C20.9225 28.354 20.8004 29.0846 20.7659 29.3978C20.7051 29.9805 20.7051 29.9805 21.0182 30.2941C21.4357 30.7116 21.6622 30.6943 23.2628 30.0939C25.3422 29.3025 26.8729 28.4847 27.6997 27.71C28.4304 27.0316 29.1352 25.5698 29.7006 23.5431C29.9094 22.7947 30.2139 22.0813 30.9273 20.6373C31.7451 18.9931 31.8753 18.68 31.8322 18.419C31.736 17.7837 30.9182 17.4098 30.4049 17.7751ZM27.7778 23.4995C27.7778 23.7083 27.3426 24.8564 27.0385 25.4654C26.6728 26.1702 26.1858 26.6572 25.3072 27.1532C24.5416 27.5879 22.9324 28.3013 22.8625 28.2319C22.8017 28.1711 23.1929 26.6749 23.428 26.0572C23.6975 25.3352 24.1064 24.7697 24.5761 24.448C25.0109 24.1607 25.9943 23.8045 27.0381 23.5431C27.8127 23.3516 27.7778 23.3602 27.7778 23.4995Z" fill="#FABE0A"/>
<path d="M9.04686 26.1609C8.92523 26.2566 8.77729 26.4826 8.71602 26.6569C8.62027 26.9614 8.63751 27.0136 9.57737 28.9015C10.2472 30.2588 10.6039 31.0852 10.7605 31.6765C11.3087 33.686 11.9436 35.0779 12.657 35.8612C13.3531 36.6268 14.9796 37.5662 16.8852 38.2973L17.5114 38.541V38.8977C17.5114 39.5675 17.9725 39.9069 18.8511 39.9069H19.3294L19.3557 41.9514L19.3816 43.9958L19.6253 44.2309C19.8168 44.4224 19.9471 44.4746 20.2602 44.4746C20.5997 44.4746 20.695 44.431 20.9128 44.1873L21.1651 43.9092V41.9169V39.9246L21.8177 39.8897C22.3918 39.8634 22.4875 39.8289 22.7312 39.6024C22.9486 39.3937 22.9922 39.2893 22.9922 38.9499V38.541L23.7228 38.2714C25.3148 37.6624 26.959 36.7488 27.6987 36.0618C28.4293 35.3833 29.1341 33.9216 29.6996 31.8948C29.9083 31.1465 30.2128 30.4331 30.9262 28.989C31.744 27.3449 31.8743 27.0317 31.8312 26.7708C31.7354 26.135 30.9176 25.761 30.4044 26.1264C30.2914 26.2044 29.8303 27.0136 29.3429 27.997C28.6553 29.3625 28.4293 29.7369 28.2814 29.7628C28.1684 29.7891 27.7509 29.8758 27.342 29.9543C25.4019 30.3283 23.775 30.9895 22.9663 31.7292C22.0092 32.5991 21.1565 34.8873 20.7739 37.5752L20.7217 37.9928H20.2607H19.7996L19.6952 37.2444C19.4692 35.6261 18.8602 33.6343 18.2856 32.625C17.555 31.3548 15.963 30.5198 13.1702 29.9543C12.5785 29.8327 12.0829 29.7279 12.0743 29.7106C12.057 29.6934 11.674 28.9364 11.2215 28.0229C10.7083 26.9877 10.2994 26.2829 10.1514 26.1699C9.84739 25.9349 9.34274 25.9262 9.04686 26.1609ZM14.032 32.0419C15.8241 32.5029 16.5897 33.0856 17.0767 34.3472C17.3549 35.0865 17.7293 36.5047 17.6508 36.5741C17.5722 36.6522 15.6063 35.7563 14.9451 35.3475C14.2231 34.895 13.7793 34.4425 13.4747 33.8426C13.266 33.4251 12.7264 31.9634 12.7264 31.8068C12.7269 31.7201 12.8312 31.7374 14.032 32.0419ZM27.7772 31.8508C27.7772 32.0596 27.342 33.2077 27.0379 33.8167C26.551 34.7825 25.7591 35.3829 23.854 36.2179C23.3843 36.4266 22.9581 36.6009 22.9059 36.6009C22.8016 36.6009 22.8624 36.2791 23.141 35.2962C23.4283 34.2433 23.8803 33.3647 24.3155 32.9994C24.7244 32.6513 25.6987 32.2424 26.8646 31.9379C27.8035 31.6942 27.7772 31.7029 27.7772 31.8508Z" fill="#FABE0A"/>
<path d="M32.5993 47.9489C32.2731 48.0864 31.4232 48.4897 30.7108 48.8415L29.4316 49.4855L29.7235 49.6402C29.8866 49.7174 30.144 49.8804 30.2899 49.992L30.5645 50.1895L32.676 49.1337L34.7874 48.0692L34.4612 47.9145C33.9212 47.657 33.2944 47.6658 32.5993 47.9489Z" fill="white"/>
<path d="M35.3049 49.1105C34.6094 49.4111 32.8585 50.3381 31.9574 50.8702C31.6141 51.076 31.4082 51.2479 31.4338 51.3251C31.451 51.3938 31.4937 51.806 31.5197 52.2437L31.5713 53.0332L32.6442 52.3209C34.8161 50.8702 36.1548 50.1318 37.3309 49.7373L37.9145 49.5398L37.6826 49.308C37.1158 48.7415 36.3007 48.6728 35.3049 49.1105Z" fill="white"/>
<path d="M10.7812 49.1687C10.3863 49.2631 9.42486 49.5033 8.63537 49.718C6.48952 50.2932 5.93147 50.3704 3.38228 50.4475L1.12491 50.5075L0.884668 50.7737C0.343385 51.3745 0.00838548 53.1426 0 55.3916C0 57.4431 0.266239 58.911 0.746727 59.5118L0.95259 59.7692H4.89251C8.54899 59.7692 8.90957 59.7864 10.0341 59.9667C12.2231 60.3101 17.124 61.8035 19.7935 62.9368C21.4417 63.632 22.0169 63.8211 22.8064 63.9498C24.0252 64.1389 25.0982 63.8123 27.1069 62.6538C27.7249 62.3021 29.2444 61.4434 30.4804 60.7398C33.0811 59.272 33.0467 59.298 35.0643 57.7785C37.107 56.2335 39.0558 54.5853 39.914 53.6927C41.3559 52.1904 41.4674 51.1946 40.2658 50.5938C39.4591 50.1905 38.5921 50.3104 37.1758 51.0232C36.0856 51.5724 35.4848 51.959 33.4161 53.4181C32.4032 54.1392 31.3047 54.8943 30.9697 55.0918C28.6691 56.5081 25.3472 57.3836 23.1586 57.1517C22.7808 57.1089 21.6823 56.9026 20.7121 56.688C19.7423 56.4733 18.4719 56.2503 17.8795 56.1815L16.8066 56.07L17.5793 55.9241C19.1071 55.6322 20.1717 55.5723 21.8027 55.6666C24.4722 55.8385 26.5237 55.5207 28.2662 54.688C29.1244 54.2759 29.9144 53.5036 30.0515 52.9283C30.3777 51.6408 29.4163 50.7309 27.4075 50.4047C26.618 50.276 26.1799 50.2676 23.8454 50.336C18.4808 50.4819 18.4464 50.4819 16.249 49.6924C15.6138 49.4605 14.7899 49.2119 14.4293 49.1343C13.5019 48.9452 11.6994 48.9624 10.7812 49.1687Z" fill="white"/>
</svg>
