<svg width="179" height="127" viewBox="0 0 179 127" fill="none" xmlns="http://www.w3.org/2000/svg">
<path d="M175.502 48.0396L130.383 74.0234L48.9062 26.9907L94.0254 0.90625L175.502 48.0396C175.502 47.9389 175.502 47.9389 175.502 48.0396Z" fill="white"/>
<path d="M130.383 74.8293L129.98 74.6278L48 27.293V26.3866L48.4028 26.1852L93.8241 0L94.2269 0.201422L176.106 47.4355V48.2412L175.703 48.4426L130.383 74.8293ZM50.3164 26.9909L130.383 73.2178L174.092 48.0398L94.0255 1.81282L50.3164 26.9909Z" fill="#131315"/>
<path d="M160.9 56.5993L146.297 64.9585L68.5469 20.0408L83.1502 11.6816L160.9 56.5993Z" fill="#FABE0A"/>
<path d="M130.384 126.093L48.8066 79.0604V26.9922L130.384 74.0248V126.093Z" fill="#FABE0A"/>
<path d="M130.384 126.898L129.981 126.696L48.1016 79.4623V79.0595V26.5884L48.8066 26.1855L49.2094 26.387L131.089 73.621V74.0239V126.495L130.384 126.898ZM49.6122 78.6567L129.679 124.884V74.4267L49.6122 28.1998V78.6567Z" fill="#131315"/>
<path d="M175.504 100.11L130.385 126.094V74.0259L175.504 47.9414V100.11Z" fill="#131315"/>
<path d="M130.385 127L129.68 126.598V126.195V73.7237L129.982 73.5222L175.504 47.2363L176.209 47.6392V48.042V100.513L175.806 100.715L130.385 127ZM131.09 74.4286V124.886L174.799 99.7074V49.2506L131.09 74.4286Z" fill="#131315"/>
<path d="M145.09 107.862V66.3689H146.097V105.042L147.406 103.23L148.615 104.237L150.629 101.517L152.14 102.726L154.154 99.7047L155.362 100.913L157.377 97.7911L158.585 99.1004L159.693 97.7911V58.0098H160.6V98.194L158.686 100.611L157.477 99.4025L155.564 102.323L154.355 101.115L152.341 104.136L150.83 102.927L148.816 105.647L147.608 104.64L145.09 107.862Z" fill="#FABE0A"/>
<path d="M89.4959 102.12H88.0859V49.4478L88.4888 49.2463L133.809 23.3633L134.615 24.5718L89.5966 50.3542L89.4959 102.12Z" fill="#131315"/>
<path d="M120.822 68.0891L120.215 68.4473L124.513 75.7337L125.121 75.3755L120.822 68.0891Z" fill="#131315"/>
<path d="M117.58 66.8312L116.973 67.1895L124.597 80.1142L125.204 79.756L117.58 66.8312Z" fill="#131315"/>
<path d="M117.588 71.1848L116.98 71.543L124.605 84.4677L125.212 84.1095L117.588 71.1848Z" fill="#131315"/>
<path d="M117.676 75.4816L117.068 75.8398L124.693 88.7646L125.3 88.4064L117.676 75.4816Z" fill="#131315"/>
<path d="M117.679 79.798L117.072 80.1562L124.697 93.081L125.304 92.7228L117.679 79.798Z" fill="#131315"/>
<path d="M117.73 83.9467L117.123 84.3049L124.748 97.2297L125.355 96.8715L117.73 83.9467Z" fill="#131315"/>
<path d="M117.734 88.3003L117.127 88.6584L124.752 101.583L125.359 101.225L117.734 88.3003Z" fill="#131315"/>
<path d="M117.787 92.7397L117.18 93.0979L124.804 106.023L125.411 105.664L117.787 92.7397Z" fill="#131315"/>
<path d="M117.879 97.0385L117.271 97.3967L124.896 110.322L125.503 109.963L117.879 97.0385Z" fill="#131315"/>
<path d="M117.857 101.601L117.25 101.959L124.875 114.884L125.482 114.526L117.857 101.601Z" fill="#131315"/>
<path d="M117.949 105.898L117.342 106.256L124.966 119.181L125.574 118.822L117.949 105.898Z" fill="#131315"/>
<path d="M117.953 110.253L117.346 110.611L124.97 123.536L125.578 123.178L117.953 110.253Z" fill="#131315"/>
<path d="M118.019 114.603L117.412 114.961L120.892 120.859L121.499 120.501L118.019 114.603Z" fill="#131315"/>
<path d="M65.7302 63.6469L56.6661 58.4099C55.7596 57.9063 55.0547 56.4964 55.0547 55.2878V45.418C55.0547 44.2095 55.7596 43.7059 56.6661 44.2095L65.7302 49.4465C66.6366 49.9501 67.3416 51.36 67.3416 52.5686V62.4384C67.3416 63.6469 66.6366 64.1505 65.7302 63.6469Z" fill="#FABE0A"/>
<path d="M66.3352 64.3519C66.0331 64.3519 65.7309 64.2512 65.4288 64.0498L56.3647 58.8127C55.3576 58.2084 54.4512 56.6978 54.4512 55.2878V45.418C54.4512 44.6123 54.7533 44.008 55.2569 43.7059C55.6597 43.4037 56.264 43.5044 56.7675 43.8066L65.8317 49.0436C66.8388 49.6479 67.7452 51.1586 67.7452 52.5686V62.4384C67.7452 63.2441 67.4431 63.8483 66.9395 64.1505C66.8388 64.2512 66.6373 64.3519 66.3352 64.3519ZM56.0626 44.6123C55.9619 44.6123 55.9619 44.6123 55.8611 44.6123C55.6597 44.713 55.559 45.1158 55.559 45.5187V55.3885C55.559 56.3956 56.1633 57.6042 56.969 58.1077L66.0331 63.3448C66.1338 63.4455 66.4359 63.5462 66.6374 63.4455C66.8388 63.3448 66.9395 62.9419 66.9395 62.5391V52.6693C66.9395 51.6621 66.3352 50.4536 65.5295 49.95L56.4654 44.713C56.3647 44.6123 56.264 44.6123 56.0626 44.6123Z" fill="#131315"/>
<path d="M58.3775 52.1702L64.1181 55.4937C64.3195 55.5944 64.5209 55.4937 64.4202 55.1915C64.2188 54.0837 63.5138 51.3645 61.2981 50.0552C58.9817 48.7459 58.176 50.5588 57.9746 51.4652C57.9746 51.6666 58.0753 51.9687 58.3775 52.1702Z" fill="#131315"/>
<path d="M64.1171 55.8955L58.3765 52.5719C58.175 52.4712 57.9736 52.2698 57.8729 51.9677C57.7722 51.6655 57.6715 51.4641 57.7722 51.2627C57.9736 50.3563 58.7793 48.342 61.3978 49.752C63.9156 51.162 64.6206 54.0826 64.822 55.2912C64.822 55.4926 64.822 55.694 64.7213 55.8955C64.5199 55.9962 64.3185 55.9962 64.1171 55.8955ZM61.2971 50.457C59.2829 49.2484 58.5779 50.7591 58.2757 51.7662L64.0164 55.0897C63.9156 53.8812 63.3114 51.5648 61.2971 50.457Z" fill="#131315"/>
<path d="M60.1887 57.8075C58.9801 57.1025 58.5773 55.6926 58.4766 54.9876L59.383 55.3904C59.383 55.5918 59.4837 56.3975 60.1887 56.6997C60.4908 56.8004 60.5915 56.8004 60.5915 56.8004C60.793 56.6997 60.7929 56.3975 60.7929 56.2968V51.6641L61.6993 52.1676V56.8004C61.6993 56.9011 61.6993 57.7068 61.2965 57.9082C61.0951 58.1096 60.6922 58.2104 60.1887 57.8075Z" fill="#131315"/>
<path d="M65.7263 82.4848L56.6622 77.2478C55.7557 76.7442 55.0508 75.3343 55.0508 74.1257V64.2559C55.0508 63.0474 55.7557 62.5438 56.6622 63.0474L65.7263 68.2844C66.6327 68.788 67.3377 70.1979 67.3377 71.4065V81.2763C67.3377 82.4848 66.6327 83.0891 65.7263 82.4848Z" fill="#131315"/>
<path d="M60.8904 68.5829L58.6747 70.6979C58.4733 70.8993 58.6747 71.5036 59.0776 71.705L63.6096 74.3235C64.0125 74.525 64.2139 74.1221 64.0125 73.7192L61.7968 68.9858C61.394 68.5829 60.9911 68.3815 60.8904 68.5829Z" fill="white"/>
<path d="M63.5102 74.7272L58.9782 72.1087C58.676 71.9072 58.3739 71.6051 58.2732 71.2022C58.1725 70.7994 58.1725 70.4973 58.3739 70.2958L60.5896 68.1809C60.8917 67.8787 61.496 68.2816 61.7981 68.8859L64.0138 73.6193C64.2152 74.0222 64.2152 74.3243 64.1145 74.6265C64.0138 74.9286 63.8124 74.9286 63.5102 74.7272ZM61.0931 68.9866L58.8775 71.1015C58.8775 71.1015 58.8775 71.2022 58.8775 71.303C58.8775 71.303 58.8775 71.4037 58.9782 71.5044L63.5102 74.1229C63.6109 74.1229 63.611 74.1229 63.611 74.1229C63.611 74.1229 63.611 74.0222 63.611 73.9215L61.3953 69.188C61.2946 68.9866 61.1939 68.8859 61.0931 68.9866Z" fill="white"/>
<path d="M61.8971 77.7499L60.5879 77.0449V72.4121L61.8971 73.1171V77.7499Z" fill="white"/>
<path d="M81.7457 91.7506L72.6816 86.5135C71.7752 86.01 71.0702 84.6 71.0702 83.3915V73.5217C71.0702 72.3131 71.7752 71.8095 72.6816 72.3131L81.7457 77.5501C82.6521 78.0537 83.3571 79.4637 83.3571 80.6722V90.542C83.4578 91.7506 82.6521 92.3549 81.7457 91.7506Z" fill="#FABE0A"/>
<path d="M82.4484 92.4555C82.1462 92.4555 81.8441 92.3548 81.542 92.1534L72.4779 86.9164C71.4707 86.3121 70.5643 84.8014 70.5643 83.3914V73.5216C70.5643 72.7159 70.8665 72.1116 71.37 71.8095C71.7729 71.5074 72.3771 71.6081 72.8807 71.9102L81.9448 77.1473C82.9519 77.7515 83.8583 79.2622 83.8583 80.6722V90.542C83.8583 91.3477 83.5562 91.952 83.0527 92.2541C82.8512 92.4555 82.6498 92.4555 82.4484 92.4555ZM82.0455 91.3477C82.1462 91.4484 82.4484 91.5491 82.6498 91.4484C82.8512 91.3477 82.9519 90.9448 82.9519 90.542V80.6722C82.9519 79.6651 82.3477 78.4565 81.542 77.9529L72.4779 72.7159C72.3771 72.6152 72.075 72.5145 71.8736 72.6152C71.6722 72.7159 71.5715 73.1188 71.5715 73.5216V83.3914C71.5715 84.3985 72.1757 85.6071 72.9814 86.1107L82.0455 91.3477Z" fill="#131315"/>
<path d="M77.5124 83.6909L77.1095 83.4895C76.2031 82.9859 75.4981 81.6766 75.4981 80.4681V77.346C75.4981 77.0439 75.6995 76.9432 75.8002 77.0439L78.6202 78.6553C78.8216 78.756 78.9223 79.0581 78.9223 79.3603V82.4823C79.023 83.6909 78.3181 84.1944 77.5124 83.6909Z" fill="#131315"/>
<path d="M77.3114 83.9898L77.11 83.8891C76.0022 83.2849 75.0958 81.6735 75.0958 80.4649V77.0407C75.0958 76.6379 75.3979 76.4364 75.8007 76.6379L78.6207 78.2492C79.0235 78.4507 79.3257 78.9542 79.3257 79.4578V82.7813C79.3257 84.0906 78.4193 84.5941 77.3114 83.9898ZM75.9015 77.4435L75.8007 80.7671C75.8007 81.6735 76.405 82.6806 77.2107 83.0834L77.4121 83.1842C78.1171 83.587 78.8221 83.2849 78.8221 82.3785V79.0549L75.9015 77.4435Z" fill="#131315"/>
<path d="M77.7133 86.6157L76.8068 86.1121V82.4865L77.7133 82.99V86.6157Z" fill="#131315"/>
<path d="M78.6216 87.7214L75.9024 86.11V85.0022L78.6216 86.6136V87.7214Z" fill="#131315"/>
<path d="M155.061 21.9491L153.953 19.3305C153.852 19.0284 153.852 18.6256 154.054 18.4241L157.78 13.8921C158.586 12.9857 159.593 12.18 160.701 11.6764L172.786 6.54008C173.29 6.33865 173.793 6.54008 173.995 7.04364L177.822 16.1077C178.023 16.6113 177.822 17.1149 177.318 17.3163L165.233 22.4526C164.125 22.9562 162.816 23.1576 161.607 23.0569L155.766 22.5533C155.464 22.4526 155.161 22.2512 155.061 21.9491Z" fill="white"/>
<path d="M162.211 23.4586C162.009 23.4586 161.808 23.4586 161.606 23.4586L155.765 22.955C155.261 22.955 154.758 22.5522 154.556 22.1493L153.449 19.5308C153.247 19.0272 153.348 18.5237 153.65 18.1208L157.376 13.5888C158.182 12.5817 159.29 11.776 160.498 11.2724L172.584 6.13608C172.886 6.03537 173.289 6.03537 173.591 6.13608C173.893 6.23679 174.195 6.53893 174.296 6.84106L178.123 15.9052C178.224 16.2073 178.224 16.6102 178.123 16.9123C178.022 17.2144 177.72 17.5166 177.418 17.6173L165.333 22.7536C164.426 23.2572 163.318 23.4586 162.211 23.4586ZM155.463 21.7465C155.563 21.8472 155.664 21.9479 155.866 22.0486L161.707 22.5522C162.815 22.6529 164.023 22.4515 165.131 22.0486L177.217 16.9123C177.317 16.9123 177.418 16.8116 177.418 16.7109C177.418 16.6102 177.418 16.5094 177.418 16.4087L173.591 7.34463C173.591 7.24391 173.49 7.1432 173.39 7.1432C173.289 7.1432 173.188 7.1432 173.087 7.1432L161.002 12.2795C159.894 12.6824 158.988 13.4881 158.182 14.2938L154.456 18.8258C154.355 18.9265 154.355 19.128 154.355 19.2287L155.463 21.7465Z" fill="#131315"/>
<path d="M171.141 9.92258L170.213 10.3145L172.799 16.4377L173.727 16.0458L171.141 9.92258Z" fill="#131315"/>
<path d="M168.818 10.9304L167.891 11.3223L170.477 17.4455L171.405 17.0536L168.818 10.9304Z" fill="#131315"/>
<path d="M166.4 11.9537L165.473 12.3457L168.06 18.4683L168.987 18.0763L166.4 11.9537Z" fill="#131315"/>
<path d="M159.893 20.1376C158.987 20.5405 158.08 20.1376 157.678 19.2312C157.275 18.3248 157.678 17.4184 158.584 17.0155C159.49 16.6127 160.397 17.0155 160.8 17.9219C161.203 18.8284 160.699 19.7348 159.893 20.1376Z" fill="#FABE0A"/>
<path d="M159.189 20.7415C158.887 20.7415 158.685 20.6407 158.383 20.54C157.879 20.3386 157.376 19.9358 157.175 19.3315C156.973 18.8279 156.973 18.2237 157.175 17.6194C157.376 17.1158 157.779 16.6123 158.383 16.4108C158.887 16.2094 159.491 16.2094 160.095 16.4108C160.599 16.6123 161.102 17.0151 161.304 17.6194C161.505 18.1229 161.505 18.7272 161.304 19.3315C161.102 19.835 160.699 20.3386 160.095 20.54C159.793 20.7415 159.491 20.7415 159.189 20.7415ZM159.189 17.418C158.987 17.418 158.887 17.4179 158.685 17.5187C158.383 17.6194 158.182 17.9215 158.081 18.2237C157.98 18.5258 157.98 18.8279 158.081 19.1301C158.182 19.4322 158.484 19.6336 158.786 19.7343C159.088 19.8351 159.39 19.8351 159.692 19.7343C159.994 19.6336 160.196 19.3315 160.297 19.0293C160.397 18.7272 160.397 18.4251 160.297 18.1229C160.196 17.8208 159.894 17.6194 159.592 17.5187C159.491 17.4179 159.39 17.418 159.189 17.418Z" fill="#131315"/>
<path d="M157.775 25.3755C157.574 25.3755 157.372 25.3755 157.171 25.2748C155.962 24.9726 155.056 23.6634 155.761 20.8434C156.265 19.1313 156.969 18.1242 158.077 17.822C159.588 17.4192 160.998 18.9299 161.099 19.0306L160.394 19.7356C160.092 19.4335 159.084 18.6277 158.279 18.8292C157.574 19.0306 157.07 19.8363 156.667 21.1456C156.164 22.8577 156.466 24.0662 157.372 24.3683C158.279 24.5698 159.487 23.9655 159.89 22.757L160.797 23.0591C160.394 24.5698 158.984 25.3755 157.775 25.3755Z" fill="#131315"/>
<path d="M159.29 39.0719C159.089 38.9712 154.154 36.8563 153.751 31.2164C153.348 25.5765 155.967 23.8644 156.067 23.7637L156.571 24.5694C156.571 24.5694 154.255 26.1808 154.657 31.1157C155.06 36.1513 159.492 38.1655 159.592 38.1655L159.29 39.0719Z" fill="#131315"/>
<path d="M34.5242 122.612C23.4715 122.612 14.9395 117.376 14.9395 110.783C14.9395 104.191 23.6654 98.9551 34.5242 98.9551C45.577 98.9551 54.1089 104.191 54.1089 110.783C54.1089 117.57 45.577 122.612 34.5242 122.612ZM34.5242 101.088C24.6349 101.088 16.6847 105.548 16.6847 110.977C16.6847 116.407 24.6349 120.867 34.5242 120.867C44.4136 120.867 52.3637 116.407 52.3637 110.977C52.3637 105.548 44.4136 101.088 34.5242 101.088Z" fill="#131315"/>
<path d="M47.3225 110.008C47.3225 114.08 41.5053 117.377 34.5246 117.377C27.5439 117.377 21.7266 114.08 21.7266 110.008C21.7266 105.936 27.5439 100.895 34.5246 100.895C41.5053 100.895 47.3225 105.936 47.3225 110.008Z" fill="#FABE0A"/>
<path d="M34.5254 118.345C26.769 118.345 20.7578 114.66 20.7578 110.006C20.7578 105.353 26.769 100.117 34.5254 100.117C42.2817 100.117 48.2928 105.547 48.2928 110.006C48.2928 114.66 42.2817 118.345 34.5254 118.345ZM34.5254 101.862C28.1264 101.862 22.503 106.322 22.503 110.006C22.503 113.497 27.9325 116.599 34.5254 116.599C40.9243 116.599 46.5476 113.691 46.5476 110.006C46.5476 106.322 40.9243 101.862 34.5254 101.862Z" fill="#131315"/>
<path d="M34.9121 101.084L37.239 107.289C37.6268 107.871 39.7599 111.555 40.9233 116.209C44.4137 115.045 47.1284 112.912 47.1284 110.004C47.1284 105.932 41.6989 101.278 34.9121 101.084Z" fill="#131315"/>
<path d="M40.1494 117.374L39.9556 116.404C38.7921 111.944 36.8531 108.26 36.4653 107.872L36.2713 107.484L33.5566 99.9219H34.9139C42.2824 100.116 47.9058 105.351 47.9058 109.617C47.9058 111.75 46.7424 114.659 40.9251 116.792L40.1494 117.374ZM38.0165 106.903C38.5982 107.872 40.3434 111.169 41.5068 115.047C43.8337 114.077 46.3545 112.526 46.3545 110.005C46.3545 106.903 42.0886 102.83 36.4653 102.249L38.0165 106.903Z" fill="#131315"/>
<path d="M21.9221 110.008C21.9221 111.171 21.7281 111.559 22.6977 112.529C25.8002 105.742 30.2601 104.579 30.2601 104.579L30.648 101.67C25.6063 103.027 21.9221 106.712 21.9221 110.008Z" fill="#131315"/>
<path d="M22.8903 114.079L21.9207 113.109C20.9512 111.946 20.9512 111.364 20.9512 110.394V109.813C20.9512 106.128 25.0232 102.056 30.2587 100.505L31.6161 100.117L31.0343 105.159L30.4526 105.353C30.4526 105.353 26.3806 106.516 23.472 112.721L22.8903 114.079ZM29.4831 102.832C25.411 104.383 22.8903 107.486 22.8903 109.813V110.006C25.4111 105.741 28.1257 104.189 29.4831 103.608V102.832Z" fill="#131315"/>
<path d="M34.5239 110.006C38.8076 110.006 42.2802 108.009 42.2802 105.546C42.2802 103.083 38.8076 101.086 34.5239 101.086C30.2402 101.086 26.7676 103.083 26.7676 105.546C26.7676 108.009 30.2402 110.006 34.5239 110.006Z" fill="white"/>
<path d="M34.5247 110.976C29.677 110.976 25.7988 108.649 25.7988 105.547C25.7988 102.444 29.677 100.117 34.5247 100.117C39.3724 100.117 43.2506 102.444 43.2506 105.547C43.2506 108.455 39.3724 110.976 34.5247 110.976ZM34.5247 101.862C30.4526 101.862 27.5439 103.801 27.5439 105.547C27.5439 107.292 30.2587 109.231 34.5247 109.231C38.5968 109.231 41.5053 107.292 41.5053 105.547C41.5053 103.801 38.5968 101.862 34.5247 101.862Z" fill="#131315"/>
<path d="M36.854 3.16463C36.66 3.16463 36.6601 3.16463 36.4662 3.16463H36.2722C32.7819 3.16463 28.7099 4.52199 24.4439 7.04279C11.646 14.993 1.1749 33.4143 0.787083 48.3452C0.593175 56.2955 3.3079 62.1127 7.76779 64.6335L7.96171 64.8274L17.0754 70.0629C19.5962 72.5837 21.5353 76.268 22.5048 80.7279L22.8927 83.0548C22.8927 83.2487 23.0865 83.4426 23.0865 83.6365C23.0865 83.6365 25.6073 90.2294 35.8844 91.3928C36.2722 91.3928 36.6601 91.1989 36.6601 90.8111L47.9067 32.0569C48.6824 29.1483 49.2641 26.2397 49.652 23.3311L50.6215 18.2895L57.7961 13.8296C57.99 14.0235 49.6519 2.97072 36.854 3.16463Z" fill="#FABE0A"/>
<path d="M36.2712 92.749H36.0773C25.2185 91.3917 22.3098 84.411 22.3098 84.2171C22.1159 84.0232 22.1159 83.8292 22.1159 83.4414L21.7281 81.1145C20.9524 77.0425 19.2073 73.746 16.6865 71.2252L7.37888 65.7958C2.33727 62.6933 -0.183511 56.4882 0.0103969 48.3441C0.398213 33.2192 11.0631 14.2162 24.2489 6.07208C28.127 3.55128 32.0052 2.19391 35.6895 2H36.659H37.2407C37.2407 2 37.2408 2 37.4347 2C50.6205 2 58.9585 12.8589 59.3463 13.4406L60.1219 14.4101L52.3655 19.2578L51.396 23.9116C51.2021 26.6263 50.6204 29.7289 49.6509 32.6375L38.4042 91.1977C37.8225 92.1673 37.0468 92.749 36.2712 92.749ZM24.4428 83.4414C25.0246 84.411 27.7393 89.0648 35.6895 90.2282L46.9361 32.0558C47.9057 28.9532 48.2935 26.2385 48.6814 23.5238L49.8448 17.7066L56.2437 13.6345C53.9168 11.1137 46.7423 4.133 37.0469 4.133H36.4652C32.9748 4.133 29.0966 5.49035 25.4124 7.81724C13.0023 15.5736 2.72508 33.607 2.33726 48.1501C2.14335 55.5187 4.47028 60.9481 8.73626 63.4689L9.12404 63.6628L18.0439 68.8983L18.2378 69.0922C21.1464 72.0009 23.0855 75.879 23.8611 80.3389L24.2489 82.6658C24.2489 82.6658 24.2489 82.6658 24.2489 82.8597L24.4428 83.4414Z" fill="#131315"/>
<path d="M35.8809 48.9229L45.5763 19.6428C45.5763 19.6428 41.8921 9.36565 25.216 6.45703C24.8281 6.65094 24.6342 6.84485 24.2464 7.03876C14.551 13.0499 6.40691 24.8783 2.72266 36.7067C2.72266 36.7067 10.0911 46.2082 35.8809 48.9229Z" fill="white"/>
<path d="M36.8518 50.2822L35.8823 50.0882C9.12293 47.1796 1.94839 37.4842 1.94839 37.2903L1.56055 36.9025L1.75447 36.3208C5.63263 23.7167 14.3585 11.8883 23.86 5.87718C24.054 5.68328 24.2478 5.68328 24.4417 5.48937L25.2173 5.10156H25.6051C42.6691 8.20409 46.7412 18.6751 46.7412 19.0629L46.935 19.4508L36.8518 50.2822ZM4.08139 36.5147C5.82656 38.2598 13.7768 45.2405 35.1067 47.7614L44.4143 19.8386C43.6386 18.0934 39.3726 10.3371 25.6051 7.81626C25.4112 7.81626 25.2173 8.01018 25.2173 8.01018C16.1036 13.6335 7.95955 24.6863 4.08139 36.5147Z" fill="#131315"/>
<path d="M62.6448 27.7883C62.6448 11.6939 51.2042 5.48883 37.0489 14.2147C24.2509 22.1649 13.7799 40.5862 13.3921 55.5171C13.1982 65.0186 16.8824 71.0298 22.6996 72.9689C28.9047 75.1019 33.3646 79.9496 35.1098 87.8998L35.4976 90.2267C35.6915 91.3901 36.661 91.778 37.8244 91.0023C38.9879 90.4206 39.9575 88.8693 40.1514 87.3181L40.5392 85.1851C42.0905 75.4897 46.1625 65.0186 52.3676 55.9049C58.7665 47.7608 62.6448 37.0959 62.6448 27.7883Z" fill="#131315"/>
<path d="M36.8553 92.7487C36.4675 92.7487 36.0797 92.7486 35.8858 92.5547C35.1102 92.1669 34.5285 91.5852 34.5285 90.6157L34.1407 88.2888C32.7833 81.1142 28.7112 76.2665 22.7001 74.1335C16.1072 72.0005 12.2291 65.0198 12.423 55.5183C12.8108 40.3935 23.4757 21.3905 36.6615 13.2463C43.8361 8.78643 50.8168 7.81688 56.0523 10.7255C61.2878 13.6341 64.0025 19.6453 64.0025 27.7894C64.0025 37.097 60.3183 47.5681 53.9193 56.8757C48.1021 65.4076 43.8361 75.4908 42.2849 85.5741L41.897 87.707C41.5092 89.4522 40.3458 91.3913 38.9884 92.1669C38.0189 92.5547 37.4371 92.7487 36.8553 92.7487ZM48.8777 11.5012C45.3873 11.5012 41.5092 12.8585 37.631 15.1854C25.2209 22.9417 14.9437 40.9752 14.5559 55.5183C14.362 64.0503 17.4646 70.0614 23.0879 71.8066C29.8747 74.1335 34.5285 79.7568 36.2736 87.707L36.6615 90.034C36.6615 90.2279 36.6615 90.2278 36.6615 90.2278C36.6615 90.2278 36.8554 90.2279 37.2432 90.034C38.0188 89.4522 38.7945 88.2888 38.9884 87.3192L39.3762 85.1863C41.1214 74.7152 45.3874 64.2442 51.5924 55.5183C57.6036 46.7924 61.2878 36.5153 61.2878 27.7894C61.2878 20.6148 58.9609 15.1854 54.501 12.8585C52.9498 12.0829 51.0107 11.5012 48.8777 11.5012Z" fill="#131315"/>
<path d="M47.4816 47.5506C52.6756 38.5546 52.676 28.8311 47.4824 25.8325C42.2888 22.8339 33.8681 27.6958 28.6741 36.6918C23.4801 45.6878 23.4797 55.4113 28.6733 58.4099C33.8668 61.4085 42.2876 56.5466 47.4816 47.5506Z" fill="#131315"/>
<path d="M32.2002 60.1698C30.8429 60.1698 29.4855 59.782 28.322 59.2003C22.6987 55.9038 22.5048 45.8206 27.9342 36.3191C30.455 31.8592 33.9454 28.175 37.6296 26.042C41.5078 23.909 45.192 23.5212 47.9067 25.0725C50.6214 26.6237 52.1727 30.1141 52.1727 34.38C52.1727 38.646 50.8154 43.4937 48.1007 47.9536C43.8347 55.516 37.4357 60.1698 32.2002 60.1698ZM44.0286 25.8481C42.2834 25.8481 40.5382 26.4298 38.5992 27.5932C35.1088 29.5323 32.0063 33.0227 29.4854 37.0948C24.6377 45.6267 24.4438 54.7404 29.0976 57.4551C33.7514 60.1698 41.7016 55.516 46.5493 46.9841C49.0701 42.7181 50.2336 38.2582 50.2336 34.38C50.2336 30.6958 49.0702 27.7872 46.7433 26.6237C45.9677 26.042 44.9981 25.8481 44.0286 25.8481Z" fill="#FABE0A"/>
<path d="M43.8341 24.8828C38.7925 24.8828 32.7814 29.5366 28.7093 36.5173C24.4433 43.6919 23.6677 51.4482 26.3824 55.7142C31.424 55.7142 37.4351 51.0604 41.5072 44.0797C45.5793 36.9051 46.3549 29.1488 43.8341 24.8828Z" fill="#131315"/>
<path d="M25.8016 56.8759L25.6076 56.4881C22.699 51.8343 23.6685 43.6902 27.9345 36.3217C32.0066 29.1471 38.4056 24.2994 43.835 24.1055H44.4167L44.6106 24.4933C47.5192 29.1471 46.5497 37.2912 42.2838 44.6597C38.2117 51.8343 31.8127 56.682 26.3833 56.8759H25.8016ZM43.2533 25.8506C38.5995 26.2384 33.17 30.6983 29.4858 37.0973C25.8015 43.4963 24.6381 50.8648 26.7711 54.9369C31.4249 54.549 36.8543 50.0891 40.5385 43.6902C44.4167 37.2912 45.3863 30.1166 43.2533 25.8506Z" fill="#FABE0A"/>
</svg>
